<svg width="61" height="61" viewBox="0 0 61 61" fill="none" xmlns="http://www.w3.org/2000/svg">
<path d="M42.06 35.0476L48.8525 41.8436L30.47 60.2422L12.09 41.8461L18.8825 35.0476L30.4725 46.7078L42.06 35.0476ZM53.6525 23.4475L60.5 30.2434L53.7125 37.0394L46.92 30.2434L53.6525 23.4475ZM30.4725 23.4475L37.2625 30.1834L30.47 36.9818L23.68 30.2434L30.47 23.45L30.4725 23.4475ZM7.29 23.4475L14.025 30.2434L7.295 36.9793L0.5 30.2434L7.29 23.4475ZM30.475 0.242188L48.855 18.5832L42.0625 25.3767L30.4725 13.7765L18.885 25.4367L12.0925 18.6408L30.4725 0.24469L30.475 0.242188Z" fill="#292929"/>
</svg>
