<svg width="46" height="43" viewBox="0 0 46 43" fill="none" xmlns="http://www.w3.org/2000/svg">
<path d="M40.79 0.590332H36.59V4.79033C36.59 5.63033 35.89 6.19033 35.19 6.19033C34.49 6.19033 33.79 5.63033 33.79 4.79033V0.590332H11.39V4.79033C11.39 5.63033 10.69 6.19033 9.99 6.19033C9.29 6.19033 8.59 5.63033 8.59 4.79033V0.590332H4.39C2.29 0.590332 0.75 2.41033 0.75 4.79033V9.83033H45.55V4.79033C45.55 2.41033 43.03 0.590332 40.79 0.590332ZM0.75 12.7703V38.3903C0.75 40.9103 2.29 42.5903 4.53 42.5903H40.93C43.17 42.5903 45.69 40.7703 45.69 38.3903V12.7703H0.75ZM13.21 36.2903H9.85C9.29 36.2903 8.73 35.8703 8.73 35.1703V31.6703C8.73 31.1103 9.15 30.5503 9.85 30.5503H13.35C13.91 30.5503 14.47 30.9703 14.47 31.6703V35.1703C14.33 35.8703 13.91 36.2903 13.21 36.2903ZM13.21 23.6903H9.85C9.29 23.6903 8.73 23.2703 8.73 22.5703V19.0703C8.73 18.5103 9.15 17.9503 9.85 17.9503H13.35C13.91 17.9503 14.47 18.3703 14.47 19.0703V22.5703C14.33 23.2703 13.91 23.6903 13.21 23.6903ZM24.41 36.2903H20.91C20.35 36.2903 19.79 35.8703 19.79 35.1703V31.6703C19.79 31.1103 20.21 30.5503 20.91 30.5503H24.41C24.97 30.5503 25.53 30.9703 25.53 31.6703V35.1703C25.53 35.8703 25.11 36.2903 24.41 36.2903ZM24.41 23.6903H20.91C20.35 23.6903 19.79 23.2703 19.79 22.5703V19.0703C19.79 18.5103 20.21 17.9503 20.91 17.9503H24.41C24.97 17.9503 25.53 18.3703 25.53 19.0703V22.5703C25.53 23.2703 25.11 23.6903 24.41 23.6903ZM35.61 36.2903H32.11C31.55 36.2903 30.99 35.8703 30.99 35.1703V31.6703C30.99 31.1103 31.41 30.5503 32.11 30.5503H35.61C36.17 30.5503 36.73 30.9703 36.73 31.6703V35.1703C36.73 35.8703 36.31 36.2903 35.61 36.2903ZM35.61 23.6903H32.11C31.55 23.6903 30.99 23.2703 30.99 22.5703V19.0703C30.99 18.5103 31.41 17.9503 32.11 17.9503H35.61C36.17 17.9503 36.73 18.3703 36.73 19.0703V22.5703C36.73 23.2703 36.31 23.6903 35.61 23.6903Z" fill="white"/>
</svg>
