<svg width="60" height="61" viewBox="0 0 60 61" fill="none" xmlns="http://www.w3.org/2000/svg">
<path d="M23.6842 53.9264C33.2779 53.9264 41.0526 46.1517 41.0526 36.558C41.0526 26.9643 33.2779 19.1896 23.6842 19.1896C14.0905 19.1896 6.31579 26.9643 6.31579 36.558C6.31579 46.1517 14.0905 53.9264 23.6842 53.9264ZM23.6842 60.2422C10.6042 60.2422 0 49.638 0 36.558C0 23.478 10.6042 12.8738 23.6842 12.8738C36.7642 12.8738 47.3684 23.478 47.3684 36.558C47.3684 49.638 36.7642 60.2422 23.6842 60.2422Z" fill="#292929"/>
<path d="M36.3157 41.2948C45.9094 41.2948 53.6842 33.5201 53.6842 23.9264C53.6842 14.3327 45.9094 6.55798 36.3157 6.55798C26.7221 6.55798 18.9473 14.3327 18.9473 23.9264C18.9473 33.5201 26.7221 41.2948 36.3157 41.2948ZM36.3157 47.6106C23.2357 47.6106 12.6315 37.0064 12.6315 23.9264C12.6315 10.8464 23.2357 0.242188 36.3157 0.242188C49.3957 0.242188 60 10.8464 60 23.9264C60 37.0064 49.3957 47.6106 36.3157 47.6106Z" fill="#292929"/>
<path d="M37.0989 47.6106C38.741 45.6211 39.9157 43.2906 40.541 40.7833C43.0421 40.158 45.3726 38.9833 47.3684 37.3411C47.2799 40.2401 46.6547 43.0948 45.5242 45.7727C42.8526 46.8969 39.9978 47.5222 37.0989 47.6106ZM19.4589 19.7011C16.9578 20.3264 14.6273 21.5011 12.6315 23.1433C12.72 20.2443 13.3452 17.3896 14.4757 14.718C17.1473 13.5938 20.0084 12.9685 22.901 12.8738C21.2589 14.8633 20.0842 17.1938 19.4589 19.7011Z" fill="#292929"/>
</svg>
