<svg width="17" height="17" viewBox="0 0 17 17" fill="none" xmlns="http://www.w3.org/2000/svg">
<g clip-path="url(#clip0_1_271)">
<path d="M9.90179 0.908691H2.47321C1.86701 0.908691 1.28562 1.14391 0.85697 1.5626C0.428316 1.98128 0.1875 2.54914 0.1875 3.14125V7.04823C0.1875 7.64034 0.428316 8.20819 0.85697 8.62688C1.28562 9.04556 1.86701 9.28079 2.47321 9.28079H3.33036V12.3505C3.33053 12.459 3.36304 12.565 3.42393 12.6557C3.48482 12.7464 3.57144 12.8178 3.67321 12.8612C3.74495 12.8931 3.82296 12.9093 3.90179 12.9087C4.04576 12.9089 4.18454 12.8561 4.29036 12.7608L8.1275 9.28079H9.90179C10.508 9.28079 11.0894 9.04556 11.518 8.62688C11.9467 8.20819 12.1875 7.64034 12.1875 7.04823V3.14125C12.1875 2.54914 11.9467 1.98128 11.518 1.5626C11.0894 1.14391 10.508 0.908691 9.90179 0.908691Z" fill="#FEFEFE"/>
</g>
<defs>
<clipPath id="clip0_1_271">
<rect width="16" height="16" fill="white" transform="translate(0.1875 0.211426)"/>
</clipPath>
</defs>
</svg>
