<svg width="61" height="62" viewBox="0 0 61 62" fill="none" xmlns="http://www.w3.org/2000/svg">
<path d="M18.0341 34.4049C19.7584 34.4049 21.4407 33.8301 22.8006 32.7787L11.8657 21.8438C9.23005 25.2504 9.86091 30.1571 13.2676 32.7927C14.6414 33.8301 16.3097 34.4049 18.0341 34.4049Z" fill="#292929"/>
<path d="M50.5584 26.5962C50.5584 24.8719 49.9837 23.1896 48.9322 21.8297L37.9973 32.7647C41.4039 35.4003 46.2966 34.7694 48.9322 31.3627C49.9837 30.0029 50.5584 28.3206 50.5584 26.5962Z" fill="#292929"/>
<path d="M56.369 16.0422L51.5324 20.8788C55.4298 25.5472 54.8129 32.5007 50.1445 36.3981C46.0509 39.8187 40.1068 39.8187 36.0132 36.3981L30.7 41.7113L25.4007 36.4121C20.7323 40.3094 13.7788 39.6925 9.88152 35.0242C6.46085 30.9306 6.46085 24.9865 9.88152 20.8929L7.40013 18.4115L5.04491 16.0422C2.19902 20.7246 0.698975 26.108 0.698975 31.5895C0.698975 48.1601 14.1293 61.5905 30.7 61.5905C47.2706 61.5905 60.701 48.1601 60.701 31.5895C60.715 26.108 59.2009 20.7246 56.369 16.0422Z" fill="#292929"/>
<path d="M52.1005 9.53488C40.6749 -2.45149 21.693 -2.90011 9.70663 8.5255C9.35615 8.86196 9.01969 9.19842 8.69725 9.53488C7.95423 10.32 7.25328 11.1331 6.59438 11.9882L30.3989 35.8068L54.2034 11.9882C53.5585 11.1331 52.8436 10.32 52.1005 9.53488ZM30.3989 4.16555C37.4085 4.16555 43.9414 6.87124 48.8481 11.806L30.3989 30.2552L11.9497 11.806C16.8564 6.87124 23.3893 4.16555 30.3989 4.16555Z" fill="#292929"/>
</svg>
