<svg width="61" height="61" viewBox="0 0 61 61" fill="none" xmlns="http://www.w3.org/2000/svg">
<path d="M47.6567 0.242192C40.5687 0.236509 34.7283 6.0735 34.71 13.181V27.5269C33.3767 27.6172 32.0133 27.674 30.6 27.674C29.1867 27.674 27.83 27.7308 26.49 27.811V13.181C26.3773 6.13867 20.569 0.406976 13.545 0.406976C6.52101 0.406976 0.712673 6.13867 0.600006 13.181V47.4682C0.712673 54.5105 6.52101 60.2422 13.545 60.2422C20.569 60.2422 26.3773 54.5105 26.49 47.4682V33.1222C27.8233 33.032 29.1867 32.9752 30.6 32.9752C32.0133 32.9752 33.37 32.9184 34.71 32.8381V47.4682C34.8227 54.5105 40.631 60.2422 47.655 60.2422C54.679 60.2422 60.4873 54.5105 60.6 47.4682V13.181C60.5817 6.07483 54.7433 0.238515 47.6567 0.242192ZM13.5433 5.54338C17.7263 5.54137 21.1723 8.98647 21.1833 13.181V28.3726C17.396 28.9227 13.6973 29.9713 10.1833 31.4911C8.66067 32.1613 7.22734 33.019 5.91667 34.0448V13.181C5.92767 8.99149 9.36534 5.54873 13.5433 5.54338ZM21.1833 47.4682C21.1833 51.671 17.7347 55.1292 13.5433 55.1292C9.35201 55.1292 5.90334 51.671 5.90334 47.4682V44.0288C5.90334 40.9905 8.30334 38.1126 12.3267 36.321C15.1617 35.0946 18.136 34.2223 21.1833 33.7239V47.4682ZM47.6567 55.1058C43.4737 55.1078 40.0277 51.6627 40.0167 47.4682V32.2766C43.804 31.7264 47.5027 30.6779 51.0167 29.1581C52.5393 28.4879 53.9727 27.6302 55.2833 26.6044V47.4682C55.2723 51.6577 51.8347 55.1004 47.6567 55.1058ZM48.8733 24.3081C46.0383 25.5345 43.064 26.4069 40.0167 26.9052V13.181C40.0167 8.97812 43.4653 5.51998 47.6567 5.51998C51.848 5.51998 55.2967 8.97812 55.2967 13.181V16.6204C55.2967 19.6453 52.8967 22.5232 48.8733 24.3081Z" fill="#292929"/>
</svg>
