<svg width="120" height="25" viewBox="0 0 120 25" fill="none" xmlns="http://www.w3.org/2000/svg">
<g clip-path="url(#clip0_1_181)">
<path d="M42.852 4.25033C42.852 4.25033 42.9186 0.590332 38.538 0.590332C35.949 0.590332 33.9144 2.62073 33.9144 5.99033C33.9144 9.82793 36.3036 11.3903 38.6484 11.3903C41.9004 11.3903 42.741 8.28833 42.741 8.28833H42.3432C42.3432 8.28833 41.4354 9.69473 39.423 9.69473C37.7634 9.69473 36.2814 8.06573 36.2814 5.63333C36.2814 2.55353 37.4316 1.48313 38.6268 1.48313C41.1264 1.48313 40.7064 4.24973 40.7064 4.24973L42.852 4.25033ZM20.4858 4.38413C20.4858 3.00053 20.154 0.612532 16.548 0.612532C12.3888 0.612532 12.3444 3.37913 12.3444 3.37913L14.667 3.35753C14.667 3.35753 14.247 1.41593 16.26 1.41593C17.6538 1.41593 18.2958 2.53193 18.2958 4.71893V5.38853C17.6538 4.98593 16.8348 4.71893 15.8838 4.71893C13.362 4.71893 11.769 6.10193 11.769 8.06573C11.769 10.0961 13.2738 11.3681 15.2868 11.3681C17.0568 11.3681 18.096 10.1189 18.6492 9.09233H18.7596C18.7596 10.1855 19.0038 11.1449 19.0038 11.1449H20.8176C20.8176 11.1449 20.4858 10.1627 20.4858 8.48933V4.38413ZM15.9948 9.85073C14.7996 9.85073 13.8708 9.09233 13.8708 7.90973C13.8708 6.70373 14.7786 5.81153 16.2384 5.81153C17.2782 5.81153 17.9424 6.14633 18.4944 6.68153L18.5166 8.04293C18.0966 8.73533 17.256 9.85073 15.9948 9.85073ZM0 0.857932C0.2874 6.01193 0 11.1665 0 11.1665H2.2788C2.2788 11.1665 1.9908 6.01253 2.2788 0.858532L0 0.857932ZM30.087 0.857932C30.375 6.01193 30.087 11.1665 30.087 11.1665H32.3658C32.3658 11.1665 32.0778 6.01253 32.3658 0.858532L30.087 0.857932ZM11.3268 2.19713L11.1048 0.857332H3.5178L3.297 2.19653C3.9162 2.08553 5.2656 2.01893 6.2166 1.97393C6.4158 6.72713 6.1728 11.1671 6.1728 11.1671H8.451C8.451 11.1671 8.208 6.72713 8.4072 1.97393C9.3582 2.01893 10.7076 2.10773 11.3268 2.19713ZM24.888 10.0961C24.6894 5.32073 24.933 0.857932 24.933 0.857932H22.6542C22.6542 0.857932 22.9416 6.01193 22.6542 11.1665H28.7376L28.959 9.20333H28.8042C27.5208 10.0511 25.4196 10.0961 24.8892 10.0961H24.888Z" fill="white"/>
</g>
<defs>
<clipPath id="clip0_1_181">
<rect width="120" height="24" fill="white" transform="translate(0 0.590332)"/>
</clipPath>
</defs>
</svg>
