<svg width="120" height="25" viewBox="0 0 120 25" fill="none" xmlns="http://www.w3.org/2000/svg">
<g clip-path="url(#clip0_1_195)">
<path fill-rule="evenodd" clip-rule="evenodd" d="M15.5472 4.02652C14.4978 4.02652 11.0724 4.36192 11.0724 8.66932C11.0724 12.0059 13.4274 13.1903 15.444 13.1903C17.616 13.1903 18.9474 12.0701 19.3998 9.86092L19.428 9.72532L18.948 9.55972L18.8862 9.68392C18.3582 10.7477 17.6094 11.2643 16.5966 11.2643C15.1884 11.2643 14.3322 10.1867 14.295 8.37712H19.4418L19.4538 8.23192C19.4718 8.01772 19.4718 7.89232 19.4718 7.83772C19.4718 4.30192 16.4682 4.02652 15.5472 4.02652ZM15.513 4.67212C16.0134 4.67212 16.5258 4.99492 16.5258 7.38772C16.5258 7.44592 16.5258 7.58632 16.518 7.74892H14.2968C14.343 5.62192 14.7192 4.67152 15.513 4.67152M24.3288 4.02652C23.2788 4.02652 19.854 4.36192 19.854 8.66932C19.854 12.0059 22.209 13.1903 24.2262 13.1903C26.3976 13.1903 27.7284 12.0701 28.1814 9.86092L28.2096 9.72532L27.6768 9.53932L27.615 9.66412C27.0726 10.7561 26.3622 11.2637 25.3788 11.2637C23.97 11.2637 23.1138 10.1867 23.0766 8.37772H28.224L28.236 8.23192C28.2534 8.01772 28.2534 7.89232 28.2534 7.83772C28.2534 4.30192 25.2498 4.02652 24.3288 4.02652ZM24.2946 4.67212C24.795 4.67212 25.3074 4.99492 25.3074 7.38772C25.3074 7.44592 25.3074 7.58632 25.2996 7.74892H23.0784C23.1246 5.62192 23.5008 4.67152 24.2946 4.67152" fill="white"/>
<path fill-rule="evenodd" clip-rule="evenodd" d="M34.443 3.81653C33.3882 3.81653 32.562 4.31813 31.9842 5.30813V3.95633H27.9528V4.21673L28.8168 5.13233C28.8912 5.21873 28.8906 5.23553 28.8858 5.34653C28.8839 5.3855 28.8829 5.42451 28.8828 5.46353V17.2043L29.1612 17.3903L31.9896 16.1819L31.9848 12.2009C32.415 12.7769 33.1248 13.0787 34.0554 13.0787C36.249 13.0787 37.782 11.0987 37.782 8.26373C37.782 5.60333 36.4398 3.81653 34.443 3.81653ZM34.5588 8.40353C34.5588 9.94433 34.131 11.7437 32.9262 11.7437C32.5548 11.7437 32.2056 11.6159 31.9842 11.3999V6.24833C32.292 5.78873 32.6856 5.53613 33.0948 5.53613C34.3044 5.53613 34.5588 7.09613 34.5588 8.40413M43.4646 7.62353L42.3822 7.13933C41.3904 6.69173 40.9182 6.36353 40.9182 5.70833C40.9182 4.93013 41.5734 4.65413 42.1338 4.65413H42.3708C42.5202 4.65413 42.5322 4.67513 42.6252 4.83353L43.989 7.32053H44.2194L45.2646 4.55093L45.1062 4.50113C44.128 4.19172 43.1087 4.03191 42.0828 4.02713C39.882 4.02713 38.46 5.16233 38.46 6.92033C38.46 8.07473 39.0582 8.97473 40.1898 9.52193L41.3412 10.0763C42.432 10.5917 42.876 10.8599 42.876 11.4563C42.876 12.1283 42.312 12.5621 41.4402 12.5621H41.0508C40.9392 12.5621 40.884 12.5273 40.833 12.4223L39.4356 9.65333H39.1992L38.181 12.5915L38.3268 12.6443C39.2646 12.9803 40.4766 13.1903 41.4912 13.1903C43.9242 13.1903 45.435 12.0281 45.435 10.1579C45.435 8.70233 44.4882 8.08013 43.4646 7.62353ZM6.6102 4.88153C6.6102 4.88153 10.7844 0.864532 10.7466 0.887932L10.7844 0.863932V0.590332H5.838V0.830332L7.554 2.59673C7.6776 2.77073 7.6776 2.77073 7.566 2.89313L4.494 5.84093V0.590332H0V0.845932L1.0356 1.95593C1.1364 2.05673 1.1418 2.06273 1.1418 2.25293V12.8081H4.494V7.69193L7.5306 12.7337L7.5756 12.8081H11.8356V12.5537L10.8114 11.5577C10.6632 11.4059 8.2308 7.50293 6.6102 4.88153Z" fill="white"/>
</g>
<defs>
<clipPath id="clip0_1_195">
<rect width="120" height="24" fill="white" transform="translate(0 0.590332)"/>
</clipPath>
</defs>
</svg>
