<svg width="25" height="28" viewBox="0 0 25 28" fill="none" xmlns="http://www.w3.org/2000/svg">
<path d="M12.3652 0.598145C7.62099 0.598145 3.66406 4.4198 3.66406 9.29932C3.66406 11.1557 4.22189 12.811 5.29245 14.3621L11.6994 24.3595C12.0102 24.8455 12.7209 24.8446 13.0311 24.3595L19.4658 14.3281C20.5133 12.8473 21.0664 11.1085 21.0664 9.29932C21.0664 4.50149 17.1631 0.598145 12.3652 0.598145ZM12.3652 13.2544C10.1845 13.2544 8.41016 11.48 8.41016 9.29932C8.41016 7.11859 10.1845 5.34424 12.3652 5.34424C14.546 5.34424 16.3203 7.11859 16.3203 9.29932C16.3203 11.48 14.546 13.2544 12.3652 13.2544Z" fill="white"/>
<path d="M18.5491 18.7754L14.566 25.0027C13.535 26.6101 11.1897 26.6048 10.1637 25.0042L6.17411 18.7771C2.6639 19.5886 0.5 21.0754 0.5 22.8521C0.5 25.935 6.61339 27.5981 12.3652 27.5981C18.1171 27.5981 24.2305 25.935 24.2305 22.8521C24.2305 21.0741 22.0636 19.5866 18.5491 18.7754Z" fill="white"/>
</svg>
