<svg width="42" height="43" viewBox="0 0 42 43" fill="none" xmlns="http://www.w3.org/2000/svg">
<path d="M31.5 17.583H28V11.0905C28 8.30568 26.8938 5.63496 24.9246 3.66583C22.9555 1.6967 20.2848 0.590454 17.5 0.590454C14.7152 0.590454 12.0445 1.6967 10.0754 3.66583C8.10625 5.63496 7 8.30568 7 11.0905V17.583H3.5C2.57174 17.583 1.6815 17.9517 1.02513 18.6081C0.368749 19.2645 0 20.1547 0 21.083V38.583C0 39.5113 0.368749 40.4015 1.02513 41.0579C1.6815 41.7143 2.57174 42.083 3.5 42.083H31.5C32.4283 42.083 33.3185 41.7143 33.9749 41.0579C34.6312 40.4015 35 39.5113 35 38.583V21.083C35 20.1547 34.6312 19.2645 33.9749 18.6081C33.3185 17.9517 32.4283 17.583 31.5 17.583ZM10.5 11.0905C10.5 9.23394 11.2375 7.45346 12.5503 6.1407C13.863 4.82795 15.6435 4.09045 17.5 4.09045C19.3565 4.09045 21.137 4.82795 22.4497 6.1407C23.7625 7.45346 24.5 9.23394 24.5 11.0905V17.583H10.5V11.0905ZM31.5 38.583H3.5V21.083H31.5V38.583Z" fill="#1D3944"/>
<path d="M17.5 34.7155C17.9641 34.7155 18.4092 34.5311 18.7374 34.2029C19.0656 33.8747 19.25 33.4296 19.25 32.9655V26.8405C19.25 26.3764 19.0656 25.9313 18.7374 25.6031C18.4092 25.2749 17.9641 25.0905 17.5 25.0905C17.0359 25.0905 16.5908 25.2749 16.2626 25.6031C15.9344 25.9313 15.75 26.3764 15.75 26.8405V32.9655C15.75 33.4296 15.9344 33.8747 16.2626 34.2029C16.5908 34.5311 17.0359 34.7155 17.5 34.7155Z" fill="#1D3944"/>
</svg>
