<svg width="120" height="25" viewBox="0 0 120 25" fill="none" xmlns="http://www.w3.org/2000/svg">
<g clip-path="url(#clip0_1_210)">
<path d="M74.3124 10.1675H72.6456C72.5171 10.1645 72.3946 10.1126 72.303 10.0223C72.2115 9.93314 72.1585 9.81168 72.1554 9.68392V9.29752C72.1587 9.16998 72.2116 9.04876 72.303 8.95972C72.3946 8.86945 72.5171 8.81751 72.6456 8.81452H74.0706C74.2003 8.81458 74.3248 8.76373 74.4174 8.67292C74.4627 8.62827 74.4986 8.57507 74.5232 8.51641C74.5477 8.45775 74.5603 8.39481 74.5603 8.33122C74.5603 8.26764 74.5477 8.2047 74.5232 8.14604C74.4986 8.08738 74.4627 8.03418 74.4174 7.98952C74.3248 7.89872 74.2003 7.84787 74.0706 7.84792H72.6324C72.504 7.84498 72.3815 7.79328 72.2898 7.70332C72.1986 7.61396 72.1456 7.49261 72.1422 7.36492V6.97852C72.1458 6.85105 72.1987 6.72994 72.2898 6.64072C72.3814 6.55055 72.5039 6.49863 72.6324 6.49552H74.2668C74.3965 6.49551 74.521 6.44468 74.6136 6.35392C74.6589 6.30927 74.6948 6.25607 74.7194 6.19741C74.7439 6.13875 74.7565 6.07581 74.7565 6.01222C74.7565 5.94864 74.7439 5.8857 74.7194 5.82704C74.6948 5.76838 74.6589 5.71518 74.6136 5.67052C74.5209 5.57999 74.3964 5.52938 74.2668 5.52952H72.3054C72.2292 5.5279 72.1548 5.55271 72.0948 5.59972C72.0352 5.64635 71.9941 5.71273 71.979 5.78692L70.9332 10.6505V10.7465C70.9512 10.8599 71.0118 10.9625 71.1024 11.0333C71.193 11.1053 71.3076 11.1407 71.4234 11.1335H74.2992C74.4289 11.1336 74.5534 11.0827 74.646 10.9919C74.6913 10.9473 74.7272 10.8941 74.7518 10.8354C74.7763 10.7768 74.7889 10.7138 74.7889 10.6502C74.7889 10.5866 74.7763 10.5237 74.7518 10.465C74.7272 10.4064 74.6913 10.3532 74.646 10.3085C74.5534 10.2177 74.4289 10.1669 74.2992 10.1669L74.3124 10.1675Z" fill="white"/>
<path d="M38.0352 5.56134H37.3818C37.2862 5.56266 37.1928 5.59043 37.112 5.64158C37.0312 5.69274 36.9661 5.76527 36.924 5.85114L35.4864 9.26514C35.4863 9.2737 35.4828 9.28187 35.4768 9.28794C35.4737 9.291 35.4701 9.29342 35.466 9.29507C35.462 9.29672 35.4577 9.29756 35.4534 9.29754C35.421 9.29754 35.421 9.29754 35.421 9.26514L33.9828 5.85114C33.9477 5.76373 33.8916 5.68626 33.8196 5.62554C33.6888 5.52954 33.5256 5.65794 33.4926 5.81934L32.4144 10.7471C32.4058 10.8029 32.4173 10.8599 32.4468 10.9079C32.4858 10.9859 32.5464 11.0513 32.6214 11.0969C32.697 11.1425 32.7834 11.1665 32.8716 11.1659H33.0678C33.1944 11.1593 33.3138 11.1059 33.4026 11.0159C33.4907 10.9269 33.5415 10.8076 33.5448 10.6823V7.52634C33.5447 7.51984 33.5466 7.51346 33.5502 7.50805C33.5538 7.50263 33.5589 7.49841 33.5649 7.49595C33.571 7.4935 33.5776 7.4929 33.5839 7.49426C33.5903 7.49561 33.5961 7.49884 33.6006 7.50354C33.6066 7.50954 33.6102 7.51794 33.6102 7.52634L34.95 10.8437C34.986 10.9337 35.049 11.0093 35.1312 11.0615C35.2137 11.1136 35.3104 11.1388 35.4078 11.1335H35.5386C35.6342 11.1322 35.7276 11.1044 35.8084 11.0532C35.8892 11.0021 35.9542 10.9296 35.9964 10.8437L37.3362 7.55814C37.3362 7.54974 37.3398 7.54134 37.3458 7.53534C37.352 7.52952 37.3601 7.5263 37.3686 7.52634C37.3776 7.52634 37.386 7.52934 37.392 7.53534C37.398 7.54134 37.4016 7.54974 37.4016 7.55814V10.6823C37.4048 10.81 37.4575 10.9313 37.5486 11.0207C37.6398 11.1107 37.7628 11.1623 37.8918 11.1659H38.088C38.2165 11.1628 38.339 11.1109 38.4306 11.0207C38.5219 10.9314 38.5748 10.81 38.5782 10.6823V6.04434C38.5555 5.91537 38.49 5.79782 38.3922 5.71074C38.2931 5.62268 38.1675 5.57012 38.0352 5.56134Z" fill="white"/>
<path d="M53.0034 8.17072H51.5658C51.4447 8.17055 51.3283 8.21795 51.2418 8.30272C51.1996 8.34436 51.1661 8.39397 51.1433 8.44866C51.1204 8.50335 51.1086 8.56204 51.1086 8.62132C51.1086 8.6806 51.1204 8.7393 51.1433 8.79399C51.1661 8.84868 51.1996 8.89829 51.2418 8.93992C51.3283 9.0247 51.4447 9.0721 51.5658 9.07192H51.8268C52.0884 9.07192 52.35 9.29752 52.2192 9.55552C52.023 9.97432 51.6306 10.1993 51.0102 10.1993C50.0946 10.1993 49.539 9.52312 49.539 8.36332C49.539 7.20412 50.1276 6.52732 51.0102 6.52732C51.2146 6.517 51.4183 6.55914 51.6018 6.64972C51.7854 6.73972 51.9414 6.87532 52.056 7.04332C52.107 7.13692 52.182 7.21612 52.2738 7.27252C52.3656 7.32892 52.4706 7.36072 52.5786 7.36492H52.8726C52.9385 7.37008 53.0047 7.35943 53.0656 7.33386C53.1266 7.30829 53.1805 7.26855 53.223 7.21792C53.2646 7.16711 53.2932 7.107 53.3064 7.04272C53.3196 6.97878 53.3165 6.91256 53.2974 6.85012C53.0924 6.42615 52.7665 6.0723 52.3608 5.83312C51.9528 5.59233 51.4835 5.47557 51.0102 5.49712C49.5066 5.49712 48.3624 6.55972 48.3624 8.36392C48.3624 10.1675 49.4412 11.2301 51.0426 11.2301C52.4808 11.2301 53.4936 10.3283 53.4936 8.87872V8.65372C53.4956 8.55703 53.4679 8.46206 53.4141 8.38167C53.3604 8.30128 53.2832 8.23937 53.193 8.20432C53.1327 8.18046 53.0683 8.16884 53.0034 8.17012V8.17072Z" fill="white"/>
<path d="M44.5062 5.88354C44.4724 5.78981 44.4106 5.70874 44.3292 5.65134C44.2469 5.59355 44.149 5.56216 44.0484 5.56134H43.1988C43.0986 5.56129 43.0008 5.59223 42.9188 5.6499C42.8369 5.70758 42.7748 5.78919 42.741 5.88354L41.1072 10.5215C41.0698 10.6312 41.0731 10.7506 41.1164 10.8581C41.1596 10.9656 41.2401 11.054 41.343 11.1071C41.4116 11.1434 41.4875 11.1635 41.565 11.1659H41.826C41.9266 11.1651 42.0245 11.1337 42.1068 11.0759C42.1882 11.0185 42.25 10.9375 42.2838 10.8437L42.48 10.2317C42.5138 10.138 42.5756 10.0569 42.657 9.99954C42.7391 9.94186 42.8368 9.91048 42.9372 9.90954H44.2776C44.3778 9.91074 44.4756 9.94194 44.5578 9.99954C44.6394 10.0571 44.7018 10.1381 44.7348 10.2317L44.931 10.8437C44.9654 10.9377 45.0277 11.0188 45.1095 11.0764C45.1913 11.134 45.2888 11.1652 45.3888 11.1659H45.6498C45.7271 11.1639 45.8028 11.144 45.8711 11.1078C45.9394 11.0715 45.9984 11.02 46.0434 10.9571C46.0876 10.8947 46.1165 10.8227 46.1277 10.747C46.1388 10.6713 46.1319 10.5941 46.1076 10.5215L44.5062 5.88354ZM43.6758 8.94354H43.578C43.5009 8.94114 43.4253 8.92107 43.3572 8.88487C43.2891 8.84867 43.2301 8.7973 43.185 8.73474C43.1407 8.67236 43.1117 8.6004 43.1004 8.5247C43.0892 8.44901 43.0959 8.37172 43.1202 8.29914L43.6104 6.81714C43.6104 6.80874 43.614 6.80094 43.62 6.79494C43.6231 6.79186 43.6267 6.78941 43.6307 6.78774C43.6347 6.78607 43.639 6.78521 43.6434 6.78521C43.6477 6.78521 43.652 6.78607 43.6561 6.78774C43.6601 6.78941 43.6637 6.79186 43.6668 6.79494C43.6728 6.80094 43.6758 6.80874 43.6758 6.81774L44.166 8.29914C44.1838 8.37396 44.1847 8.45181 44.1687 8.52704C44.1528 8.60227 44.1203 8.67301 44.0736 8.73414C44.0266 8.79598 43.9666 8.84678 43.8979 8.88296C43.8292 8.91914 43.7534 8.93982 43.6758 8.94354Z" fill="white"/>
<path d="M56.7948 5.56134H56.5662C56.4375 5.5643 56.3147 5.61623 56.223 5.70654C56.1321 5.7959 56.0792 5.91692 56.0754 6.04434V10.6823C56.079 10.81 56.1319 10.9312 56.223 11.0207C56.3142 11.1107 56.4366 11.1623 56.5662 11.1659H56.7948C56.9233 11.1628 57.0457 11.1109 57.1374 11.0207C57.2286 10.9314 57.2816 10.81 57.285 10.6823V6.04434C57.2763 5.91857 57.2219 5.80033 57.132 5.71194C57.0412 5.6231 56.9215 5.56986 56.7948 5.56194V5.56134Z" fill="white"/>
<path d="M62.514 6.52793C62.7333 6.52202 62.9505 6.57222 63.1449 6.67375C63.3394 6.77529 63.5047 6.92481 63.6252 7.10813C63.6678 7.22058 63.7436 7.31745 63.8424 7.38593C63.9414 7.45493 64.0596 7.49273 64.1808 7.49393H64.4094C64.4753 7.49919 64.5415 7.48858 64.6025 7.46301C64.6634 7.43743 64.7174 7.39763 64.7598 7.34693C64.8014 7.29643 64.83 7.23649 64.8431 7.17237C64.8562 7.10825 64.8533 7.0419 64.8348 6.97913C64.5078 6.01313 63.6252 5.46533 62.4816 5.46533C60.978 5.46533 59.8344 6.49613 59.8344 8.33213C59.8344 10.1681 60.9456 11.1983 62.4816 11.1983C63.6906 11.1983 64.5078 10.5539 64.8018 9.74873C64.8213 9.68607 64.8246 9.61951 64.8115 9.55522C64.7984 9.49092 64.7692 9.43098 64.7268 9.38093C64.6846 9.33009 64.6308 9.29015 64.5699 9.26446C64.509 9.23877 64.4429 9.2281 64.377 9.23333H64.1154C63.9969 9.24283 63.883 9.2836 63.7854 9.35149C63.6878 9.41937 63.61 9.51193 63.5598 9.61973C63.4504 9.805 63.2923 9.95671 63.1026 10.0583C62.9121 10.1606 62.6976 10.2095 62.4816 10.1999C61.6314 10.1999 61.0434 9.55553 61.0434 8.36393C61.0434 7.17233 61.6314 6.52793 62.514 6.52793Z" fill="white"/>
<path d="M79.443 5.56134H77.907C77.7785 5.56445 77.656 5.61637 77.5644 5.70654C77.4733 5.79576 77.4204 5.91687 77.4168 6.04434V10.6823C77.4202 10.81 77.4731 10.9314 77.5644 11.0207C77.6556 11.1107 77.778 11.1623 77.907 11.1659H79.443C81.1752 11.1659 82.221 10.1027 82.221 8.36394C82.221 6.62394 81.1428 5.56194 79.443 5.56194V5.56134ZM79.3782 10.1351H79.1166C78.9879 10.1321 78.8652 10.0802 78.7734 9.98994C78.6824 9.9007 78.6297 9.77956 78.6264 9.65214V7.04274C78.6298 6.91534 78.6825 6.79422 78.7734 6.70494C78.8653 6.61478 78.9879 6.56288 79.1166 6.55974H79.3782C80.4564 6.55974 81.012 7.10754 81.012 8.33154C81.012 9.55554 80.4564 10.1351 79.3782 10.1351Z" fill="white"/>
<path d="M88.104 10.1675H86.4372C86.3088 10.1646 86.1863 10.1129 86.0946 10.0229C86.0031 9.93376 85.9501 9.81229 85.947 9.68454V9.29814C85.9503 9.1706 86.0032 9.04938 86.0946 8.96034C86.1862 8.87017 86.3087 8.81825 86.4372 8.81514H87.8754C88.0051 8.81513 88.1296 8.76429 88.2222 8.67354C88.2675 8.62889 88.3034 8.57569 88.328 8.51703C88.3525 8.45837 88.3651 8.39542 88.3651 8.33184C88.3651 8.26826 88.3525 8.20531 88.328 8.14665C88.3034 8.088 88.2675 8.0348 88.2222 7.99014C88.1296 7.89944 88.0051 7.84862 87.8754 7.84854H86.4372C86.3087 7.84543 86.1862 7.79352 86.0946 7.70334C86.0032 7.61431 85.9503 7.49308 85.947 7.36554V6.97914C85.9503 6.8516 86.0032 6.73037 86.0946 6.64134C86.1862 6.55117 86.3087 6.49925 86.4372 6.49614H88.071C88.2007 6.49632 88.3253 6.44546 88.4178 6.35454C88.4631 6.30989 88.499 6.25669 88.5236 6.19803C88.5481 6.13937 88.5607 6.07642 88.5607 6.01284C88.5607 5.94926 88.5481 5.88631 88.5236 5.82765C88.499 5.769 88.4631 5.71579 88.4178 5.67114C88.3253 5.58022 88.2007 5.52936 88.071 5.52954H85.2282C85.0995 5.53256 84.9768 5.58448 84.885 5.67474C84.794 5.76425 84.7411 5.88551 84.7374 6.01314V10.6511C84.7412 10.7786 84.7941 10.8996 84.885 10.9889C84.9762 11.0789 85.0986 11.1305 85.2282 11.1341H88.104C88.2325 11.131 88.355 11.0791 88.4466 10.9889C88.5377 10.8997 88.5907 10.7786 88.5942 10.6511C88.596 10.5545 88.5681 10.4596 88.5142 10.3794C88.4603 10.2991 88.3831 10.2373 88.293 10.2023C88.233 10.1783 88.1687 10.1664 88.104 10.1675Z" fill="white"/>
<path d="M95.49 5.56134H95.2614C95.1329 5.56445 95.0104 5.61637 94.9188 5.70654C94.8274 5.79557 94.7745 5.9168 94.7712 6.04434V9.04014C94.7712 9.07194 94.7712 9.07194 94.7382 9.07194H94.7058L92.418 5.78694C92.3735 5.72502 92.3144 5.67502 92.2459 5.64132C92.1775 5.60763 92.1019 5.59129 92.0256 5.59374H91.7184C91.5899 5.59685 91.4674 5.64877 91.3758 5.73894C91.2849 5.8283 91.232 5.94932 91.2282 6.07674V10.7147C91.232 10.8422 91.2849 10.9632 91.3758 11.0525C91.4673 11.1429 91.5899 11.1948 91.7184 11.1977H91.9476C92.0761 11.1946 92.1986 11.1427 92.2902 11.0525C92.3813 10.9633 92.4343 10.8422 92.4378 10.7147V7.68714C92.4378 7.67855 92.4412 7.67031 92.4473 7.66423C92.4534 7.65815 92.4616 7.65474 92.4702 7.65474H92.5032L94.8234 10.9403C94.868 11.0023 94.927 11.0523 94.9955 11.086C95.0639 11.1196 95.1396 11.136 95.2158 11.1335H95.5098C95.6383 11.1304 95.7608 11.0785 95.8524 10.9883C95.9438 10.8993 95.9968 10.7781 96 10.6505V6.01254C95.9776 5.89182 95.9155 5.78202 95.8236 5.70054C95.7307 5.61872 95.6135 5.5698 95.49 5.56134Z" fill="white"/>
<path d="M18.3054 4.54072L19.8186 6.31852C19.9914 6.51832 20.145 6.68272 20.2074 6.77572C20.4309 6.9971 20.6083 7.26054 20.7294 7.55085C20.8505 7.84115 20.9129 8.15257 20.913 8.46712C20.871 9.21412 20.3838 9.72292 19.9326 10.2671L18.8736 11.5103L18.3216 12.1547C18.3068 12.1713 18.2959 12.1909 18.2896 12.2122C18.2834 12.2335 18.2819 12.2559 18.2854 12.2778C18.2888 12.2998 18.2971 12.3207 18.3096 12.339C18.3221 12.3573 18.3385 12.3727 18.3576 12.3839C18.3831 12.3993 18.4125 12.407 18.4422 12.4061H23.9622C24.8058 12.4061 25.8678 13.1141 25.8054 14.1905C25.8042 14.4332 25.755 14.6733 25.6605 14.8968C25.5661 15.1204 25.4284 15.3231 25.2552 15.4931C24.9023 15.84 24.4276 16.0349 23.9328 16.0361H15.2886C14.7198 16.0361 13.1904 16.0973 12.7626 14.7923C12.6716 14.5201 12.6591 14.2277 12.7266 13.9487C12.8515 13.5352 13.0485 13.147 13.3086 12.8021C13.7505 12.1542 14.2068 11.5162 14.6772 10.8887C15.2754 10.0709 15.8898 9.27832 16.4946 8.44432C16.5161 8.41727 16.5277 8.38376 16.5277 8.34922C16.5277 8.31469 16.5161 8.28117 16.4946 8.25412L14.2986 5.67772C14.2769 5.64913 14.2459 5.62903 14.2109 5.62092C14.176 5.61281 14.1393 5.6172 14.1072 5.63332C14.086 5.64374 14.0675 5.65894 14.0532 5.67772C13.4652 6.46012 10.8894 9.92572 10.3404 10.6277C9.7914 11.3297 8.4384 11.3687 7.6902 10.6277L4.2552 7.22992C4.23319 7.20808 4.20521 7.19324 4.17478 7.18726C4.14435 7.18128 4.11284 7.18443 4.0842 7.19632C4.05564 7.20794 4.03117 7.22777 4.01387 7.25329C3.99657 7.27881 3.98722 7.30889 3.987 7.33972V13.8743C3.99491 14.3389 3.85544 14.7941 3.5886 15.1745C3.31949 15.5573 2.9378 15.8467 2.4966 16.0025C2.21372 16.0994 1.912 16.1284 1.61586 16.087C1.31971 16.0456 1.03748 15.9351 0.792 15.7643C0.548148 15.5944 0.348576 15.3685 0.21 15.1055C0.0725266 14.8438 0.000472839 14.5527 0 14.2571V2.50852C0.0198 2.08492 0.174 1.67812 0.4416 1.34632C0.710802 1.01333 1.07759 0.773073 1.4904 0.659323C1.84573 0.566207 2.21919 0.567241 2.574 0.662323C2.9286 0.757123 3.252 0.943123 3.51 1.20052L8.7912 6.41212C8.80708 6.4281 8.82626 6.44042 8.84739 6.44822C8.86852 6.45602 8.89111 6.45912 8.91356 6.45729C8.93601 6.45546 8.9578 6.44875 8.97739 6.43764C8.99698 6.42652 9.01391 6.41126 9.027 6.39292L12.7788 1.27492C12.9528 1.06667 13.17 0.898779 13.4154 0.782923C13.6621 0.66651 13.931 0.604703 14.2038 0.601723H23.9622C24.2285 0.601807 24.4918 0.658192 24.7348 0.767179C24.9778 0.876166 25.195 1.03529 25.3722 1.23412C25.548 1.4308 25.679 1.66329 25.7562 1.91553C25.8333 2.16777 25.8548 2.43376 25.8192 2.69512C25.7494 3.14943 25.516 3.56256 25.1628 3.85672C24.8088 4.15252 24.3582 4.31272 23.8938 4.30552H18.4296C18.4023 4.30632 18.3757 4.31428 18.3524 4.3286C18.3291 4.34292 18.31 4.3631 18.297 4.38712C18.2843 4.41108 18.2784 4.43803 18.2799 4.46509C18.2814 4.49214 18.2902 4.51829 18.3054 4.54072Z" fill="white"/>
</g>
<defs>
<clipPath id="clip0_1_210">
<rect width="120" height="24" fill="white" transform="translate(0 0.590332)"/>
</clipPath>
</defs>
</svg>
