<svg width="24" height="25" viewBox="0 0 24 25" fill="none" xmlns="http://www.w3.org/2000/svg">
<g clip-path="url(#clip0_92_119)">
<path d="M4 18.7422H20C20.55 18.7422 21 18.2922 21 17.7422C21 17.1922 20.55 16.7422 20 16.7422H4C3.45 16.7422 3 17.1922 3 17.7422C3 18.2922 3.45 18.7422 4 18.7422ZM4 13.7422H20C20.55 13.7422 21 13.2922 21 12.7422C21 12.1922 20.55 11.7422 20 11.7422H4C3.45 11.7422 3 12.1922 3 12.7422C3 13.2922 3.45 13.7422 4 13.7422ZM3 7.74219C3 8.29219 3.45 8.74219 4 8.74219H20C20.55 8.74219 21 8.29219 21 7.74219C21 7.19219 20.55 6.74219 20 6.74219H4C3.45 6.74219 3 7.19219 3 7.74219Z" fill="black" fill-opacity="0.54"/>
</g>
<defs>
<clipPath id="clip0_92_119">
<rect width="24" height="24" fill="white" transform="translate(0 0.742188)"/>
</clipPath>
</defs>
</svg>
