<svg width="61" height="61" viewBox="0 0 61 61" fill="none" xmlns="http://www.w3.org/2000/svg">
<mask id="mask0_1_296" style="mask-type:luminance" maskUnits="userSpaceOnUse" x="0" y="0" width="61" height="61">
<path d="M60.7876 0.242188H0.8125V60.2422H60.7876V0.242188Z" fill="white"/>
</mask>
<g mask="url(#mask0_1_296)">
<path d="M30.4002 1.29016C18.4452 1.29016 8.7612 10.9862 8.7532 22.9462C8.7532 24.3142 8.88115 25.6822 9.13704 27.0262L11.9359 25.1142C16.8538 21.7382 24.8265 21.7382 29.7365 25.1142L32.6713 27.1302L34.2626 28.2262C38.6928 31.2662 45.8738 31.2662 50.2959 28.2262L51.5994 27.3382C53.9984 15.6182 46.4495 4.17016 34.7344 1.76216C33.311 1.46616 31.8636 1.32216 30.4082 1.32216L30.4002 1.29016Z" fill="#292929"/>
</g>
<mask id="mask1_1_296" style="mask-type:luminance" maskUnits="userSpaceOnUse" x="0" y="0" width="61" height="61">
<path d="M60.7876 0.242188H0.8125V60.2422H60.7876V0.242188Z" fill="white"/>
</mask>
<g mask="url(#mask1_1_296)">
<path d="M42.5631 35.9543C39.4684 36.0103 36.4296 35.1463 33.8387 33.4743L29.3206 30.3783C24.3067 27.2983 17.9813 27.2983 12.9594 30.3783L10.0406 32.3783C9.46484 32.7783 8.67317 32.6263 8.27334 32.0503C7.8735 31.4743 8.02544 30.6823 8.6012 30.2823L11.52 28.2823C17.4055 24.6263 24.8584 24.6263 30.744 28.2823L35.2621 31.3783C39.7323 34.1223 45.3699 34.1223 49.8401 31.3783L51.5513 30.2023C52.1271 29.8023 52.9188 29.9543 53.3186 30.5303C53.7185 31.1063 53.5665 31.8983 52.9908 32.2983L51.2795 33.4743C48.6885 35.1383 45.6498 36.0023 42.5631 35.9543Z" fill="#292929"/>
</g>
<mask id="mask2_1_296" style="mask-type:luminance" maskUnits="userSpaceOnUse" x="0" y="0" width="61" height="61">
<path d="M60.7876 0.242188H0.8125V60.2422H60.7876V0.242188Z" fill="white"/>
</mask>
<g mask="url(#mask2_1_296)">
<path d="M21.0441 45.0502V32.8102C21.0361 32.5542 21.0441 32.2982 21.0761 32.0422C21.156 31.3462 21.7478 30.8182 22.4515 30.8182C23.1312 30.8422 23.683 31.3622 23.747 32.0422C23.8029 32.4662 23.8109 32.8982 23.7949 33.3222V57.7222C23.8269 58.5142 23.2112 59.1702 22.4195 59.2022C22.4115 59.2022 22.4035 59.2022 22.3955 59.2022C21.6198 59.1622 21.0281 58.4982 21.0681 57.7222C21.0681 57.6982 21.0681 57.6742 21.0761 57.6582V49.5142L21.0441 45.0502Z" fill="#292929"/>
</g>
<mask id="mask3_1_296" style="mask-type:luminance" maskUnits="userSpaceOnUse" x="0" y="0" width="61" height="61">
<path d="M60.7876 0.242188H0.8125V60.2422H60.7876V0.242188Z" fill="white"/>
</mask>
<g mask="url(#mask3_1_296)">
<path d="M18.4771 38.8902V44.9702C18.4771 46.0102 17.9094 46.6822 17.1337 46.6822C16.366 46.6822 15.7503 45.9542 15.7423 44.9702V32.8022C15.7423 31.7382 16.366 31.0182 17.1737 31.0902C17.9813 31.1622 18.4611 31.7702 18.4691 32.8422C18.4771 34.8342 18.4771 36.8582 18.4771 38.8902Z" fill="#292929"/>
</g>
<mask id="mask4_1_296" style="mask-type:luminance" maskUnits="userSpaceOnUse" x="0" y="0" width="61" height="61">
<path d="M60.7876 0.242188H0.8125V60.2422H60.7876V0.242188Z" fill="white"/>
</mask>
<g mask="url(#mask4_1_296)">
<path d="M26.3699 38.8822V34.6182C26.3699 33.6262 26.8977 32.9862 27.6814 32.9862C28.489 33.0262 29.1208 33.7142 29.0808 34.5222C29.0808 34.5382 29.0808 34.5622 29.0808 34.5782C29.1048 37.4822 29.1048 40.3862 29.0808 43.2982C29.0808 44.2902 28.513 44.8902 27.6894 44.8742C26.8737 44.8662 26.3779 44.2582 26.3699 43.2422V38.8822Z" fill="#292929"/>
</g>
<mask id="mask5_1_296" style="mask-type:luminance" maskUnits="userSpaceOnUse" x="0" y="0" width="61" height="61">
<path d="M60.7876 0.242188H0.8125V60.2422H60.7876V0.242188Z" fill="white"/>
</mask>
<g mask="url(#mask5_1_296)">
<path d="M10.4485 39.7622V35.4902C10.4485 34.4982 10.9763 33.8582 11.76 33.8582C12.5676 33.8982 13.1994 34.5862 13.1594 35.3942C13.1594 35.4102 13.1594 35.4342 13.1594 35.4502C13.1834 38.3622 13.1834 41.2662 13.1594 44.1782C13.1594 45.1702 12.5916 45.7622 11.776 45.7542C10.9683 45.7462 10.4565 45.1382 10.4485 44.1222V39.7622Z" fill="#292929"/>
</g>
<mask id="mask6_1_296" style="mask-type:luminance" maskUnits="userSpaceOnUse" x="0" y="0" width="61" height="61">
<path d="M60.7876 0.242188H0.8125V60.2422H60.7876V0.242188Z" fill="white"/>
</mask>
<g mask="url(#mask6_1_296)">
<path d="M32.9991 36.1302C33.7428 36.1302 34.3425 36.7303 34.3425 37.4743V39.7943C34.3425 40.5383 33.7428 41.1382 32.9991 41.1382C32.2554 41.1382 31.6556 40.5383 31.6556 39.7943V37.4743C31.6636 36.7383 32.2634 36.1302 32.9991 36.1302Z" fill="#292929"/>
</g>
<mask id="mask7_1_296" style="mask-type:luminance" maskUnits="userSpaceOnUse" x="0" y="0" width="61" height="61">
<path d="M60.7876 0.242188H0.8125V60.2422H60.7876V0.242188Z" fill="white"/>
</mask>
<g mask="url(#mask7_1_296)">
<path d="M38.317 38.1703C39.0606 38.1703 39.6604 38.7703 39.6604 39.5143V52.5463C39.6604 53.2903 39.0606 53.8903 38.317 53.8903C37.5733 53.8903 36.9735 53.2903 36.9735 52.5463V39.5143C36.9735 38.7703 37.5733 38.1703 38.317 38.1703Z" fill="#292929"/>
</g>
<mask id="mask8_1_296" style="mask-type:luminance" maskUnits="userSpaceOnUse" x="0" y="0" width="61" height="61">
<path d="M60.7876 0.242188H0.8125V60.2422H60.7876V0.242188Z" fill="white"/>
</mask>
<g mask="url(#mask8_1_296)">
<path d="M43.6027 38.6742C44.3464 38.6742 44.9461 39.2742 44.9461 40.0182V51.0902C44.9461 51.8342 44.3464 52.4342 43.6027 52.4342C42.859 52.4342 42.2592 51.8342 42.2592 51.0902V40.0182C42.2592 39.2742 42.859 38.6742 43.6027 38.6742Z" fill="#292929"/>
</g>
<mask id="mask9_1_296" style="mask-type:luminance" maskUnits="userSpaceOnUse" x="0" y="0" width="61" height="61">
<path d="M60.7876 0.242188H0.8125V60.2422H60.7876V0.242188Z" fill="white"/>
</mask>
<g mask="url(#mask9_1_296)">
<path d="M48.9525 37.4102C49.6962 37.4102 50.2959 38.0102 50.2959 38.7542V43.5302C50.2959 44.2742 49.6962 44.8742 48.9525 44.8742C48.2088 44.8742 47.609 44.2742 47.609 43.5302V38.7542C47.609 38.0102 48.2168 37.4102 48.9525 37.4102Z" fill="#292929"/>
</g>
</svg>
