<svg width="73" height="61" viewBox="0 0 73 61" fill="none" xmlns="http://www.w3.org/2000/svg">
<path d="M50.6422 2.02968C58.8517 5.51247 64.3246 14.0951 63.7027 22.8021C49.0252 22.8021 34.3477 22.9264 19.6702 22.6777C19.6702 16.8316 21.6604 10.8611 25.8895 6.75633C32.1088 0.412672 42.4328 -1.5775 50.6422 2.02968Z" fill="#292929"/>
<path d="M50.0202 58.0033C50.8909 58.0033 51.6372 58.5008 51.6372 59.1228C51.6372 59.7447 50.8909 60.2422 50.0202 60.2422H26.3869C25.5162 60.2422 24.7699 59.7447 24.7699 59.1228C24.7699 58.5008 25.5162 58.0033 26.3869 58.0033H50.0202Z" fill="#292929"/>
<path d="M21.2872 60.2421C22.1803 60.2421 22.9042 59.5181 22.9042 58.6251C22.9042 57.732 22.1803 57.0081 21.2872 57.0081C20.3942 57.0081 19.6702 57.732 19.6702 58.6251C19.6702 59.5181 20.3942 60.2421 21.2872 60.2421Z" fill="#292929"/>
<path d="M35.4671 54.2717C36.3602 54.2717 37.0841 53.5478 37.0841 52.6547C37.0841 51.7617 36.3602 51.0377 35.4671 51.0377C34.5741 51.0377 33.8501 51.7617 33.8501 52.6547C33.8501 53.5478 34.5741 54.2717 35.4671 54.2717Z" fill="#292929"/>
<path d="M63.205 51.0377C64.0757 51.0377 64.822 51.784 64.822 52.6547C64.822 53.5254 64.0757 54.2717 63.205 54.2717H40.0693C39.1986 54.2717 38.4523 53.5254 38.4523 52.6547C38.4523 51.784 39.1986 51.0377 40.0693 51.0377H63.205Z" fill="#292929"/>
<path d="M5.11714 48.3012C6.01019 48.3012 6.73413 47.5772 6.73413 46.6842C6.73413 45.7911 6.01019 45.0671 5.11714 45.0671C4.22409 45.0671 3.50012 45.7911 3.50012 46.6842C3.50012 47.5772 4.22409 48.3012 5.11714 48.3012Z" fill="#292929"/>
<path d="M28.1284 45.0671C28.9991 45.0671 29.7454 45.8135 29.7454 46.6842C29.7454 47.5549 28.9991 48.3012 28.1284 48.3012H9.09742C8.22672 48.3012 7.48041 47.5549 7.48041 46.6842C7.48041 45.8135 8.22672 45.0671 9.09742 45.0671H28.1284Z" fill="#292929"/>
<path d="M70.7926 45.0671C71.6633 45.0671 72.4096 45.8135 72.4096 46.6842C72.4096 47.5549 71.6633 48.3012 70.7926 48.3012H32.9794C32.1087 48.3012 31.3624 47.5549 31.3624 46.6842C31.3624 45.8135 32.1087 45.0671 32.9794 45.0671H70.7926Z" fill="#292929"/>
<path d="M63.7028 39.0966C64.5735 39.0966 65.3198 39.8429 65.3198 40.7136C65.3198 41.5843 64.5735 42.3306 63.7028 42.3306H17.307C16.4363 42.3306 15.69 41.5843 15.69 40.7136C15.69 39.8429 16.4363 39.0966 17.307 39.0966H63.7028Z" fill="#292929"/>
<path d="M12.207 42.3306C13.1001 42.3306 13.8241 41.6066 13.8241 40.7136C13.8241 39.8205 13.1001 39.0966 12.207 39.0966C11.314 39.0966 10.59 39.8205 10.59 40.7136C10.59 41.6066 11.314 42.3306 12.207 42.3306Z" fill="#292929"/>
<path d="M54.0006 33.2506C54.8713 33.2506 55.6177 33.9969 55.6177 34.8676C55.6177 35.7383 54.8713 36.4846 54.0006 36.4846H7.60487C6.73417 36.4846 5.98785 35.7383 5.98785 34.8676C5.98785 33.9969 6.73417 33.2506 7.60487 33.2506H54.0006Z" fill="#292929"/>
<path d="M2.00752 36.4846C2.90057 36.4846 3.62451 35.7607 3.62451 34.8676C3.62451 33.9746 2.90057 33.2506 2.00752 33.2506C1.11447 33.2506 0.390503 33.9746 0.390503 34.8676C0.390503 35.7607 1.11447 36.4846 2.00752 36.4846Z" fill="#292929"/>
<path d="M12.207 30.5139C13.1001 30.5139 13.8241 29.79 13.8241 28.8969C13.8241 28.0039 13.1001 27.2799 12.207 27.2799C11.314 27.2799 10.59 28.0039 10.59 28.8969C10.59 29.79 11.314 30.5139 12.207 30.5139Z" fill="#292929"/>
<path d="M68.1804 27.2799C69.0511 27.2799 69.7974 28.0262 69.7974 28.8969C69.7974 29.7676 69.0511 30.5139 68.1804 30.5139H17.6799C16.8092 30.5139 16.0629 29.7676 16.0629 28.8969C16.0629 28.0262 16.8092 27.2799 17.6799 27.2799H68.1804Z" fill="#292929"/>
</svg>
