<svg width="42" height="43" viewBox="0 0 42 43" fill="none" xmlns="http://www.w3.org/2000/svg">
<g clip-path="url(#clip0_1_135)">
<path d="M21 2.34045H3.5C2.57174 2.34045 1.6815 2.7092 1.02512 3.36558C0.368746 4.02195 0 4.91219 0 5.84045V38.583C0 39.5113 0.368746 40.4015 1.02512 41.0579C1.6815 41.7143 2.57174 42.083 3.5 42.083H21C21.9283 42.083 22.8185 41.7143 23.4749 41.0579C24.1313 40.4015 24.5 39.5113 24.5 38.583V5.84045C24.5 4.91219 24.1313 4.02195 23.4749 3.36558C22.8185 2.7092 21.9283 2.34045 21 2.34045ZM21 38.583H3.5V5.84045H7.52501C7.63329 6.19783 7.85306 6.51121 8.15218 6.73476C8.4513 6.95832 8.81408 7.08032 9.1875 7.08295H15.3125C15.6859 7.08032 16.0487 6.95832 16.3478 6.73476C16.6469 6.51121 16.8667 6.19783 16.975 5.84045H21V38.583Z" fill="#1D3944"/>
<path d="M15.3125 31.5828H9.1875C8.72337 31.5828 8.27825 31.7672 7.95006 32.0954C7.62187 32.4236 7.4375 32.8687 7.4375 33.3328C7.4375 33.797 7.62187 34.2421 7.95006 34.5703C8.27825 34.8985 8.72337 35.0828 9.1875 35.0828H15.3125C15.7766 35.0828 16.2217 34.8985 16.5499 34.5703C16.8781 34.2421 17.0625 33.797 17.0625 33.3328C17.0625 32.8687 16.8781 32.4236 16.5499 32.0954C16.2217 31.7672 15.7766 31.5828 15.3125 31.5828Z" fill="#1D3944"/>
</g>
<defs>
<clipPath id="clip0_1_135">
<rect width="42" height="42" fill="white" transform="translate(0 0.590454)"/>
</clipPath>
</defs>
</svg>
