<svg width="42" height="43" viewBox="0 0 42 43" fill="none" xmlns="http://www.w3.org/2000/svg">
<g clip-path="url(#clip0_1_144)">
<path d="M31.6838 8.14573L16.905 5.00448C16.6628 4.95245 16.4122 4.95245 16.17 5.00448L1.39125 8.14573C0.999054 8.22787 0.646929 8.44212 0.393707 8.75268C0.140486 9.06323 0.00150804 9.45128 0 9.85198V24.8233C0 33.1445 5.87125 39.4708 16.0913 42.1745C16.3776 42.2531 16.6799 42.2531 16.9663 42.1745C27.2038 39.4708 33.075 33.1533 33.075 24.8233V9.85198C33.0735 9.45128 32.9345 9.06323 32.6813 8.75268C32.4281 8.44212 32.0759 8.22787 31.6838 8.14573ZM29.575 24.8233C29.575 33.617 21.6125 37.2483 16.5375 38.6745C11.4625 37.2483 3.5 33.617 3.5 24.8233V11.2783L16.5375 8.50448L29.575 11.2783V24.8233Z" fill="#1D3944"/>
<path d="M10.8846 22.2508C10.722 22.0882 10.529 21.9592 10.3166 21.8713C10.1041 21.7833 9.87642 21.738 9.64648 21.738C9.41654 21.738 9.18885 21.7833 8.97641 21.8713C8.76398 21.9592 8.57095 22.0882 8.40836 22.2508C8.24576 22.4134 8.11679 22.6064 8.0288 22.8189C7.9408 23.0313 7.89551 23.259 7.89551 23.4889C7.89551 23.7189 7.9408 23.9466 8.0288 24.159C8.11679 24.3714 8.24576 24.5645 8.40836 24.7271L12.7834 29.1021C13.1112 29.428 13.5548 29.611 14.0171 29.611C14.4794 29.611 14.923 29.428 15.2509 29.1021L25.1559 19.1533C25.319 18.9896 25.4483 18.7953 25.5364 18.5816C25.6245 18.3679 25.6696 18.1389 25.6692 17.9077C25.6688 17.6766 25.6229 17.4477 25.5341 17.2343C25.4452 17.0209 25.3152 16.8271 25.1515 16.6639C24.9877 16.5008 24.7935 16.3715 24.5797 16.2834C24.366 16.1953 24.137 16.1502 23.9059 16.1506C23.6747 16.151 23.4459 16.1969 23.2325 16.2857C23.0191 16.3746 22.8253 16.5046 22.6621 16.6683L13.9734 25.3571L10.8846 22.2508Z" fill="#1D3944"/>
</g>
<defs>
<clipPath id="clip0_1_144">
<rect width="42" height="42" fill="white" transform="translate(0 0.590454)"/>
</clipPath>
</defs>
</svg>
