<svg width="23" height="43" viewBox="0 0 23 43" fill="none" xmlns="http://www.w3.org/2000/svg">
<path d="M17.7644 0.590332H4.30305C1.92743 0.593129 0.00235703 2.5916 0 5.05779V38.1232C0.00235703 40.5894 1.92743 42.5879 4.30305 42.5903H17.7644C20.14 42.5879 22.0651 40.5894 22.0678 38.1232V5.05779C22.0651 2.5916 20.14 0.593129 17.7644 0.590332ZM11.0339 38.7724C10.018 38.7724 9.19469 37.9177 9.19469 36.863C9.19469 35.8088 10.018 34.9541 11.0339 34.9541C12.0495 34.9541 12.8728 35.8088 12.8728 36.863C12.8728 37.9177 12.0495 38.7724 11.0339 38.7724ZM13.7924 6.31762H8.27542C7.76764 6.31762 7.35582 5.8901 7.35582 5.36296C7.35582 4.83581 7.76764 4.40864 8.27542 4.40864H13.7924C14.3002 4.40864 14.7116 4.83581 14.7116 5.36296C14.7116 5.8901 14.3002 6.31762 13.7924 6.31762Z" fill="white"/>
</svg>
