<svg width="120" height="25" viewBox="0 0 120 25" fill="none" xmlns="http://www.w3.org/2000/svg">
<g clip-path="url(#clip0_1_167)">
<path fill-rule="evenodd" clip-rule="evenodd" d="M49.7634 11.3705C49.7634 9.71153 50.9172 8.69153 52.3266 8.69153C55.7382 8.69153 55.7382 14.0651 52.3266 14.0651C50.9172 14.0651 49.7634 13.0469 49.7634 11.3705ZM54.888 14.1149L54.969 15.4289H56.538V7.32893H54.9372L54.888 8.61053C54.3924 7.68953 53.3202 7.14833 52.1976 7.14833C49.9266 7.14833 48.1128 8.65973 48.1128 11.3705C48.1128 14.1305 49.8594 15.6581 52.1658 15.6425C53.145 15.6425 54.3618 15.1493 54.888 14.1149ZM61.9512 8.74253C62.5776 8.74253 63.234 8.97173 63.7296 9.46433L64.7898 8.33033C63.9378 7.47593 63.0258 7.13153 61.9374 7.13153C59.6478 7.13153 57.7758 8.59313 57.7758 11.3867C57.7758 14.1809 59.6634 15.6431 61.9374 15.6431C63.0732 15.6431 64.0518 15.2639 64.9308 14.3783L63.8088 13.2431C63.2976 13.7843 62.61 13.9991 61.9374 13.9991C60.5766 13.9991 59.4246 13.0955 59.4246 11.3867C59.4246 9.77753 60.528 8.74253 61.9512 8.74253ZM34.0452 14.1809C33.117 14.1617 32.0112 13.8179 31.2768 12.9821L30.414 14.1809C31.4532 15.3803 32.7318 15.6749 34.014 15.6749C36.0618 15.6749 37.3632 14.6237 37.3794 13.1129C37.3914 11.0249 35.4894 10.6961 34.0314 10.5659C33.0234 10.4669 32.334 10.2041 32.3184 9.53033C32.3184 8.88833 32.9898 8.54393 33.9984 8.56133C34.7832 8.56133 35.4564 8.72573 36.0804 9.31673L37.008 8.19893C36.1296 7.39313 35.1876 7.11713 33.9672 7.11713C32.4954 7.11713 30.6822 7.78853 30.6822 9.58013C30.699 11.3705 32.4132 11.8631 33.9 12.0125C35.073 12.1265 35.7456 12.4061 35.73 13.1291C35.7132 13.8851 34.833 14.1809 34.0452 14.1809ZM42.8532 8.80673C44.3574 8.80673 45.348 9.86033 45.348 11.3867C45.348 12.8993 44.2926 13.9655 42.8532 13.9655C41.4114 13.9655 40.3692 12.8345 40.3692 11.3867C40.3692 9.93953 41.3286 8.80673 42.8532 8.80673ZM26.8068 0.590332C26.2926 0.590332 25.8762 1.01033 25.8762 1.52273V6.55613L22.2726 10.6481V3.94313H20.607V15.4283H22.2726V11.6819L25.8762 15.6779V21.2567C25.8762 21.7721 26.2902 22.1897 26.8062 22.1897H40.2264V14.2451C40.8192 15.2489 42.0516 15.6089 43.0116 15.6089C45.4626 15.6089 47.001 13.8347 47.001 11.3867C47.001 8.93873 45.3648 7.18073 43.0116 7.16453C41.9556 7.16453 40.8354 7.65653 40.2264 8.64233L40.128 7.32953H38.5764V20.4659L27.8484 20.4617C27.808 20.4621 27.7679 20.4543 27.7305 20.439C27.693 20.4237 27.6591 20.4011 27.6305 20.3725C27.6019 20.3439 27.5793 20.3099 27.5639 20.2725C27.5486 20.2351 27.5409 20.195 27.5412 20.1545V15.0395L23.9778 11.1407L27.5418 7.17533V2.61053C27.5418 2.43773 27.684 2.29853 27.852 2.29853H76.866C77.0376 2.29853 77.1762 2.43353 77.1762 2.61353V20.1461C77.1762 20.3201 77.034 20.4617 76.8606 20.4617L41.874 20.4677V22.1777L77.9076 22.1897C78.4224 22.1897 78.84 21.7685 78.84 21.2621V1.51853C78.84 1.00613 78.4212 0.590332 77.9094 0.590332H26.8068ZM67.182 10.5815C67.4388 9.29933 68.4306 8.62553 69.633 8.62553C70.9626 8.62553 71.874 9.29933 71.9706 10.5815H67.182ZM69.5826 7.11713C67.119 7.11713 65.4366 8.87333 65.4366 11.3375C65.4366 13.9337 67.1028 15.6251 69.6966 15.6251C70.914 15.6251 72.2742 15.1649 73.092 14.2451L72.0162 13.1789C71.538 13.7369 70.53 14.0483 69.729 14.0483C68.286 14.0483 67.2942 13.2431 67.1496 12.0125H73.554C73.8576 8.70713 72.129 7.11713 69.5826 7.11713ZM10.7766 14.0651C9.3702 14.0651 8.2176 13.0469 8.2176 11.3705C8.2176 9.71153 9.3696 8.69153 10.7766 8.69153C14.1906 8.69153 14.1906 14.0651 10.7766 14.0651ZM13.3398 8.61113C12.8466 7.68953 11.7726 7.14833 10.653 7.14833C8.3766 7.14833 6.5682 8.65973 6.5682 11.3705C6.5682 14.1305 8.3118 15.6581 10.6182 15.6425C11.595 15.6425 12.8118 15.1493 13.3398 14.1149L13.4214 15.4289H14.9898V7.32893H13.3902L13.3398 8.61053V8.61113ZM4.3068 13.9991C3.54 13.9991 3.1704 13.5221 3.1704 12.6695V8.80673H5.4948V7.34573H3.1896V3.94313H1.5234V7.34573H0V8.80673H1.5234V12.6695C1.5234 14.5727 2.499 15.5765 4.2132 15.5279C4.7712 15.5279 5.2572 15.4127 5.799 15.1649L5.3172 13.7195C4.9968 13.8845 4.6284 13.9991 4.3068 13.9991ZM16.9752 15.4289H18.6252V3.94313H16.9752V15.4283V15.4289Z" fill="white" stroke="white" stroke-width="0.3"/>
</g>
<defs>
<clipPath id="clip0_1_167">
<rect width="120" height="24" fill="white" transform="translate(0 0.590332)"/>
</clipPath>
</defs>
</svg>
