<svg width="25" height="28" viewBox="0 0 25 28" fill="none" xmlns="http://www.w3.org/2000/svg">
<path d="M12.4217 0.340454C8.4962 0.340454 5.30255 3.5341 5.30255 7.45959C5.30255 11.3851 8.4962 14.5787 12.4217 14.5787C16.3472 14.5787 19.5408 11.3851 19.5408 7.45959C19.5408 3.5341 16.3472 0.340454 12.4217 0.340454Z" fill="white"/>
<path d="M21.2793 19.2296C19.3302 17.2506 16.7464 16.1608 14.0037 16.1608H10.8397C8.09705 16.1608 5.51317 17.2506 3.56411 19.2296C1.62459 21.199 0.556458 23.7984 0.556458 26.5494C0.556458 26.9863 0.910622 27.3405 1.34747 27.3405H23.4959C23.9328 27.3405 24.2869 26.9863 24.2869 26.5494C24.2869 23.7984 23.2188 21.199 21.2793 19.2296Z" fill="white"/>
</svg>
