<svg width="51" height="43" viewBox="0 0 51 43" fill="none" xmlns="http://www.w3.org/2000/svg">
<path d="M35.6305 42.5904H4.26657C1.54843 42.5904 -0.387365 39.9424 0.445128 37.3547L3.74501 27.0438C4.80819 23.7339 8.42903 22.0188 11.6587 23.2725C13.8051 24.105 16.5634 24.757 19.9435 24.757C23.3236 24.757 26.0819 24.105 28.2283 23.2725C28.3487 23.2224 28.4791 23.1823 28.6095 23.1421V23.3929C28.6095 29.3206 33.0126 34.2354 38.7197 35.0378L39.462 37.3547C40.2844 39.9424 38.3587 42.5904 35.6305 42.5904Z" fill="white"/>
<path d="M20.5654 21.2723C26.2766 21.2723 30.9064 16.6425 30.9064 10.9313C30.9064 5.22014 26.2766 0.590332 20.5654 0.590332C14.8543 0.590332 10.2245 5.22014 10.2245 10.9313C10.2245 16.6425 14.8543 21.2723 20.5654 21.2723Z" fill="white"/>
<path d="M40.3647 13.6337C34.9785 13.6337 30.6054 18.0068 30.6054 23.3929C30.6054 28.779 34.9785 33.1521 40.3647 33.1521C45.7508 33.1521 50.1239 28.789 50.1239 23.3929C50.1239 17.9967 45.7608 13.6337 40.3647 13.6337ZM46.3827 21.3066L39.7027 27.9866C39.0106 28.6787 37.8872 28.6787 37.1952 27.9866L34.3466 25.1381C33.6546 24.446 33.6546 23.3227 34.3466 22.6306C35.0387 21.9385 36.1621 21.9385 36.8541 22.6306L38.4489 24.2254L43.8651 18.7991C44.5572 18.1071 45.6806 18.1071 46.3726 18.7991C47.0748 19.4912 47.0747 20.6146 46.3827 21.3066Z" fill="white"/>
</svg>
