<svg width="31" height="28" viewBox="0 0 31 28" fill="none" xmlns="http://www.w3.org/2000/svg">
<path d="M10.6603 8.86645C16.3535 8.86645 20.6076 6.61582 20.6076 4.6034C20.6076 2.59117 16.3534 0.340454 10.6603 0.340454C4.96721 0.340454 0.713165 2.59117 0.713165 4.6034C0.713165 6.61582 4.96711 8.86645 10.6603 8.86645Z" fill="white"/>
<path d="M10.6603 25.9192C11.4913 25.9192 12.2911 25.8709 13.0518 25.7828C12.4106 24.9587 11.8802 24.0442 11.483 23.062C11.21 23.0712 10.9361 23.0775 10.6602 23.0775C7.40714 23.0775 4.32641 22.4329 1.98577 21.2625C1.5249 21.0321 1.10079 20.7845 0.713165 20.5224V21.6562C0.713165 23.6685 4.96711 25.9192 10.6603 25.9192Z" fill="white"/>
<path d="M10.6603 20.235C10.6895 20.235 10.7182 20.2345 10.7473 20.2344C10.689 19.7686 10.6586 19.2942 10.6586 18.8129C10.6586 18.3317 10.6889 17.8576 10.7473 17.3922C10.7182 17.3922 10.6894 17.3932 10.6603 17.3932C7.40724 17.3932 4.3266 16.7486 1.98587 15.5782C1.5249 15.3478 1.1007 15.1002 0.713074 14.8382V15.9719C0.713168 17.9843 4.96712 20.235 10.6603 20.235Z" fill="white"/>
<path d="M10.6603 14.5506C10.9423 14.5506 11.2205 14.5449 11.4952 14.5341C11.9363 13.4517 12.5392 12.452 13.2743 11.5654C12.4233 11.6592 11.5486 11.709 10.6603 11.709C7.40724 11.709 4.3266 11.0644 1.98587 9.89402C1.5249 9.66349 1.1007 9.416 0.713074 9.15392V10.2877C0.713168 12.3 4.96712 14.5506 10.6603 14.5506Z" fill="white"/>
<path d="M14.9241 14.1021C14.3092 15.0266 13.8698 16.0773 13.6537 17.2063C13.5539 17.7268 13.5013 18.2638 13.5013 18.8128C13.5013 19.2257 13.5314 19.6316 13.5883 20.0289C13.7283 21.0049 14.0341 21.9278 14.4762 22.7685C14.9401 23.6507 15.5538 24.4424 16.2836 25.109C17.8004 26.4943 19.8177 27.3405 22.0289 27.3405C26.731 27.3405 30.5565 23.515 30.5565 18.8128C30.5565 14.1106 26.731 10.2852 22.0289 10.2852C21.5429 10.2852 21.0664 10.3267 20.6023 10.4052C18.2384 10.805 16.2024 12.1806 14.9241 14.1021Z" fill="white"/>
</svg>
