<svg width="97" height="45" viewBox="0 0 97 45" fill="none" xmlns="http://www.w3.org/2000/svg">
<g clip-path="url(#clip0_13_2)">
<path d="M18.5929 5.77196C18.2281 5.966 18.2437 5.50029 18.2437 16.4677C18.2437 23.3757 18.2747 26.9927 18.329 27.3032C18.5619 28.6304 19.0586 29.6239 19.9124 30.4777C20.8516 31.4247 22.0159 31.9525 23.5993 32.1465C24.5152 32.2552 27.4957 32.2474 27.7518 32.131C28.0623 31.9913 28.1167 31.6187 28.0856 29.8568C28.0546 27.7689 28.1865 27.9163 26.3314 27.8542C24.422 27.7999 23.9175 27.6136 23.4984 26.8375C23.3276 26.5192 23.3276 26.5037 23.3043 21.5129C23.2888 16.8558 23.2966 16.4987 23.4208 16.4134C23.5139 16.3358 24.034 16.3125 25.3923 16.3125C27.1309 16.3125 27.2396 16.3047 27.4336 16.1495L27.6354 15.9942V14.178C27.6354 12.517 27.6199 12.354 27.4879 12.191C27.3405 12.0047 27.3172 12.0047 25.4388 11.9659C23.9951 11.9348 23.5139 11.9038 23.4208 11.8184C23.3043 11.7252 23.2888 11.4303 23.2888 9.03967C23.2888 6.20662 23.2578 5.95048 22.9163 5.76419C22.6989 5.64777 18.8025 5.65553 18.5929 5.77196Z" fill="white"/>
<path d="M50.1213 5.76419C49.741 5.98152 49.7565 5.52358 49.7565 18.9515C49.7565 32.6821 49.7332 31.9447 50.1989 32.1388C50.3775 32.2086 51.7202 32.2241 56.0125 32.2008C60.8171 32.1776 61.6631 32.1543 62.1055 32.0456C64.6436 31.4247 66.064 29.9654 66.5763 27.4506C66.7005 26.8219 66.716 26.3019 66.716 22.0562C66.716 17.1197 66.7005 16.848 66.3512 15.7691C65.9554 14.5195 65.0628 13.3707 64.0227 12.7576C62.9205 12.1056 61.8571 11.896 59.6916 11.8882C57.9374 11.8882 57.5571 11.9503 56.6723 12.3617C55.997 12.6722 55.5623 13.0448 55.2208 13.5958C55.0656 13.852 54.9026 14.0383 54.8715 14.015C54.8327 13.9917 54.8017 12.191 54.8017 10.0177V6.05914L54.6076 5.87286L54.4213 5.67881H52.3412C51.0062 5.67881 50.2067 5.70986 50.1213 5.76419ZM60.2737 16.3513C60.8326 16.4987 61.1896 16.7626 61.4225 17.1895C61.5932 17.5155 61.5932 17.5311 61.6165 21.8544C61.6398 26.7133 61.632 26.7831 61.1275 27.2954C60.6541 27.7611 60.3358 27.8154 57.7589 27.862C55.2907 27.9008 54.9336 27.862 54.8482 27.5438C54.7706 27.2488 54.8017 19.1067 54.8793 18.5323C55.0578 17.3448 55.702 16.5608 56.7188 16.3202C57.2466 16.196 59.7615 16.2193 60.2737 16.3513Z" fill="white"/>
<path d="M69.6966 5.82627L69.5103 5.97375L69.487 18.8583L69.4715 31.7506L69.6577 31.968L69.844 32.1853L71.7767 32.2086C72.8323 32.2241 73.8181 32.2086 73.9578 32.1853C74.1363 32.1543 74.2605 32.0611 74.3614 31.8904C74.5166 31.6497 74.5166 31.4247 74.5011 18.8506L74.4778 6.05136L74.2605 5.86508L74.0432 5.6788H71.963C70.0226 5.6788 69.8673 5.68656 69.6966 5.82627Z" fill="white"/>
<path d="M4.91667 12.0822C3.15474 12.4005 1.92838 13.2232 1.32296 14.4961C0.989201 15.1947 0.779633 16.2426 0.779633 17.2438C0.779633 18.8428 1.17548 19.8828 2.13795 20.8453C2.87532 21.5904 3.49626 21.9863 6.59321 23.6939C9.9075 25.5179 10.249 25.8128 10.249 26.8296C10.249 27.2255 10.2257 27.2953 9.99288 27.5282C9.50388 28.0172 9.34089 28.0327 5.15728 28.0327C2.96846 28.0327 1.33072 28.0638 1.21429 28.1103C1.08234 28.1569 0.996963 28.2733 0.94263 28.4751C0.833965 28.8555 0.833965 31.3237 0.94263 31.6963C1.0901 32.2396 0.965916 32.2241 5.68508 32.2241C8.02138 32.2241 10.2102 32.1853 10.5983 32.1465C13.0588 31.867 14.5723 30.8037 15.1933 28.9253C15.3563 28.4053 15.3951 28.1181 15.4261 27.1789C15.4882 25.2385 15.1389 24.2061 14.0523 23.1428C13.377 22.4753 12.9967 22.2269 9.89974 20.4106C7.06668 18.7496 6.74845 18.54 6.41469 18.1752C5.70061 17.3835 5.97227 16.4599 6.98906 16.2426C7.23744 16.1882 8.56471 16.1572 10.6449 16.1572H13.9048L14.0911 15.9631C14.2851 15.7768 14.2851 15.7768 14.2851 14.1391C14.2851 12.4315 14.2386 12.1288 13.9359 12.0124C13.866 11.9891 11.9333 11.9658 9.6436 11.9736C6.58545 11.9813 5.32804 12.0046 4.91667 12.0822Z" fill="white"/>
<path d="M35.0867 12.1133C32.766 12.6023 31.2447 14.046 30.6548 16.3124C30.484 16.9489 30.4762 17.1119 30.4452 21.5904C30.4141 27.3419 30.4607 27.8154 31.2136 29.2746C31.9355 30.6717 33.286 31.6497 35.0091 32.03C35.925 32.2241 38.1526 32.2784 38.9676 32.1154C40.2095 31.867 41.2108 31.2461 41.6687 30.4233C41.7852 30.2215 41.9016 30.0508 41.9326 30.0508C41.9559 30.0508 41.9947 30.4544 42.0103 30.9434C42.0491 32.2706 41.8705 32.1853 44.5251 32.1853H46.6673L46.8536 31.9679L47.0399 31.7506V22.126C47.0399 11.8804 47.0477 12.1521 46.6906 12.0124C46.6208 11.9891 44.1292 11.9658 41.1565 11.9736C36.2588 11.9736 35.6844 11.9891 35.0867 12.1133ZM41.8783 16.4366C41.987 16.553 41.9947 17.0187 41.9792 21.1946C41.9559 25.4868 41.9482 25.8517 41.8085 26.2087C41.5135 27.0082 40.9391 27.5437 40.1785 27.7378C39.674 27.8697 37.2678 27.8697 36.8254 27.7378C36.4451 27.6291 36.0414 27.3652 35.8552 27.1013C35.7775 26.9926 35.6534 26.6899 35.5913 26.426C35.4826 26.0069 35.4671 25.3704 35.4904 21.8466L35.5136 17.7483L35.7465 17.2826C36.0026 16.7781 36.251 16.5841 36.8642 16.4211C37.1048 16.3512 37.9508 16.3202 39.4877 16.3202C41.4669 16.3124 41.7696 16.3279 41.8783 16.4366Z" fill="white"/>
<path d="M77.3652 12.1055C77.2876 12.1831 77.2333 12.3228 77.2333 12.4159C77.2333 12.7109 81.5799 28.9874 81.7739 29.4065C82.0378 29.9886 82.5967 30.5552 83.1943 30.8347C83.5902 31.0287 83.8385 31.0908 84.3508 31.1218L85.0106 31.1607L84.9562 31.4401C84.8786 31.867 84.4828 32.8139 84.2266 33.1787C83.5436 34.1567 82.7674 34.4284 80.338 34.5215C78.5528 34.5914 78.677 34.4517 78.6459 36.5551C78.6149 38.2937 78.6692 38.6585 78.9641 38.8138C79.1039 38.8914 79.686 38.9069 81.3936 38.8836C83.3884 38.8526 83.7066 38.8293 84.2577 38.6818C86.5396 38.0609 88.1851 36.3843 89.2097 33.6211C89.4891 32.876 94.5421 12.8351 94.5421 12.4858C94.5421 12.3849 94.4644 12.2296 94.3635 12.1365C94.185 11.9735 94.1307 11.9657 92.1126 11.9657C89.8772 11.9657 89.722 11.989 89.5279 12.3694C89.4658 12.4935 88.6509 15.9087 87.7117 19.9682C86.7803 24.0276 85.9963 27.3729 85.9653 27.3962C85.942 27.4195 85.8954 27.4039 85.8566 27.3651C85.8256 27.3263 85.0339 24.012 84.1024 19.9992C83.171 15.9864 82.356 12.5867 82.2939 12.447C82.0844 11.989 81.9757 11.9657 79.6161 11.9657C77.6524 11.9657 77.4816 11.9735 77.3652 12.1055Z" fill="white"/>
</g>
<defs>
<clipPath id="clip0_13_2">
<rect width="96.7188" height="44.2422" fill="white" transform="translate(0 0.090332)"/>
</clipPath>
</defs>
</svg>
