<svg width="42" height="43" viewBox="0 0 42 43" fill="none" xmlns="http://www.w3.org/2000/svg">
<path d="M25.5815 21.9446C24.6615 22.825 23.6913 24.0169 22.8096 25.6153C21.9385 22.47 20.8403 20.164 19.7302 18.4759C24.8238 1.45807 0 0.848267 0 0.848267C0 0.848267 0.72464 22.1175 13.6889 21.6292C13.6625 20.205 13.4421 18.7649 13.1333 17.4146C12.9313 16.5342 12.6911 15.6948 12.4429 14.92C11.614 12.3501 10.6782 10.526 10.6782 10.526C11.6233 11.7957 12.4601 13.0074 13.1992 14.1465C15.7427 18.0601 17.1313 21.1038 17.7767 22.7115C19.3699 26.1341 20.8007 31.7635 20.8007 40.9634C20.8007 42.0048 21.6468 42.8483 22.6842 42.8483C23.7243 42.8483 24.5691 42.0048 24.5691 40.9634C24.5691 37.9817 24.4252 35.3287 24.1652 32.962C24.7657 30.074 25.6725 28.0242 26.611 26.5723C27.2274 25.3962 28.3639 23.382 29.895 21.3256C31.2585 19.4962 32.94 17.6324 34.8421 16.3019C34.8421 16.3019 30.9417 20.6194 30.6896 24.8458C41.4628 25.4081 41.8812 8.45895 41.8812 8.45895C41.8812 8.45895 22.1655 9.13211 25.5815 21.9446Z" fill="#1D3944"/>
</svg>
