<svg width="43" height="43" viewBox="0 0 43 43" fill="none" xmlns="http://www.w3.org/2000/svg">
<path d="M40.8032 38.5257C41.2911 37.707 41.5624 36.778 41.5824 35.8136C41.6125 34.357 41.0704 32.9964 40.056 31.9825L35.6666 27.593C34.6788 26.6052 33.3625 26.0652 31.949 26.0652C31.9109 26.0652 31.8728 26.0656 31.8345 26.0664C30.8699 26.0863 29.9407 26.3574 29.1219 26.8454L28.4774 26.2009C28.9654 25.3821 29.2368 24.4532 29.2568 23.4888C29.2869 22.032 28.7446 20.671 27.7297 19.6566L23.3402 15.2672C22.3257 14.2528 20.9642 13.7113 19.5084 13.7407C18.5441 13.7606 17.6151 14.032 16.7965 14.5199L16.1524 13.8757C16.6404 13.0569 16.9117 12.1277 16.9315 11.1632C16.9615 9.7066 16.4191 8.34574 15.4045 7.3314L11.0158 2.94242C9.2685 1.19494 6.56294 0.954497 4.47255 2.1955L2.62449 0.348267L0.650269 2.32323L2.49718 4.16948C2.00916 4.9881 1.73771 5.91713 1.71777 6.88169C1.68767 8.33812 2.2295 9.69889 3.2436 10.7137L7.63208 15.1026C8.61985 16.0906 9.93617 16.6307 11.35 16.6306C11.3881 16.6306 11.4266 16.6302 11.4648 16.6294C12.4298 16.6094 13.3589 16.3381 14.1779 15.8501L14.822 16.4943C14.3338 17.3131 14.0626 18.2423 14.0425 19.2069C14.0123 20.6635 14.5545 22.0246 15.5689 23.0388L19.9584 27.4284C20.9463 28.4163 22.2625 28.9562 23.6759 28.9562C23.7139 28.9562 23.7521 28.9558 23.7904 28.9549C24.7553 28.9351 25.6846 28.6636 26.5031 28.1756L27.1473 28.8197C26.6593 29.6385 26.3881 30.5678 26.3684 31.5326C26.3386 32.9893 26.8809 34.3501 27.8951 35.3638L32.284 39.7535C33.3025 40.7713 34.6461 41.2778 36.0039 41.2778C36.9763 41.2777 37.956 41.0178 38.8284 40.4998L40.6767 42.3483L42.6515 40.3738L40.8032 38.5257ZM14.0435 11.7664L12.3782 10.1008L10.4034 12.0752L12.069 13.741C11.8544 13.7999 11.6326 13.8328 11.4073 13.8373C10.7202 13.8552 10.0785 13.5997 9.60688 13.128L5.21857 8.73926C4.74728 8.26773 4.49544 7.62836 4.50971 6.93936C4.51439 6.71401 4.5472 6.49219 4.60627 6.27767L5.18346 6.8547L7.15777 4.87973L6.5832 4.30541C6.81798 4.24102 7.05793 4.20788 7.29624 4.20788C7.93832 4.20788 8.56711 4.44274 9.0411 4.91681L13.43 9.30611C13.9018 9.77756 14.1537 10.4167 14.1396 11.1056C14.135 11.3308 14.1023 11.5522 14.0435 11.7664ZM26.3685 24.0923L24.7024 22.4264L22.7279 24.4012L24.3939 26.0669C24.1796 26.1258 23.958 26.1586 23.7329 26.1632C23.0426 26.1764 22.4045 25.9253 21.933 25.454L17.5435 21.0643C17.0721 20.593 16.8202 19.9538 16.8346 19.2649C16.8392 19.0397 16.872 18.818 16.9309 18.6037L18.5962 20.2691L20.571 18.2946L18.9053 16.6289C19.1196 16.57 19.3412 16.5372 19.5661 16.5326C19.5846 16.5322 19.603 16.532 19.6213 16.532C20.289 16.532 20.9066 16.7828 21.3655 17.2417L25.7551 21.6312L25.7553 21.6314C26.227 22.1029 26.4789 22.742 26.4648 23.4309C26.4602 23.6562 26.4274 23.8779 26.3685 24.0923ZM38.6943 36.4165L38.1193 35.8415L36.1447 37.8161L36.7187 38.3903C35.8507 38.6291 34.9092 38.4291 34.2585 37.779L29.8696 33.3895C29.3982 32.9182 29.1463 32.2791 29.1603 31.59C29.165 31.3648 29.1976 31.1432 29.2564 30.9288L30.9226 32.5947L32.897 30.6199L31.2312 28.9545C31.4454 28.8958 31.6668 28.8631 31.8918 28.8585C31.9102 28.8581 31.9285 28.8579 31.9468 28.8579C32.615 28.8579 33.2328 29.1087 33.6918 29.5677L38.0813 33.9572L38.0816 33.9576C38.5528 34.4286 38.8047 35.0673 38.7903 35.756C38.7857 35.9808 38.7531 36.2023 38.6943 36.4165Z" fill="#1D3944"/>
</svg>
