<svg width="50" height="43" viewBox="0 0 50 43" fill="none" xmlns="http://www.w3.org/2000/svg">
<path d="M39.948 1.37598C34.8674 1.37598 30.7292 5.50383 30.7292 10.5947C30.7292 14.786 33.5486 18.3295 37.3872 19.4438V26.9806L34.8265 29.5413L38.4116 33.1264L36.3631 35.175V38.2479L39.4359 41.3207L42.5088 38.2479V19.4438C46.3475 18.3295 49.1668 14.7861 49.1668 10.5947C49.1667 5.50383 45.0285 1.37598 39.948 1.37598ZM39.948 9.5674C38.8165 9.5674 37.8994 8.65015 37.8994 7.51881C37.8994 6.38726 38.8165 5.47023 39.948 5.47023C41.0794 5.47023 41.9966 6.38726 41.9966 7.51881C41.9966 8.65005 41.0794 9.5674 39.948 9.5674Z" fill="#1D3944"/>
<path d="M26.632 19.8135V11.6157C26.632 5.40283 21.5774 0.348267 15.3646 0.348267C9.15173 0.348267 4.09716 5.40283 4.09716 11.6157V19.8135H0V42.3483H30.7293V19.8135H26.632ZM18.4376 35.175H12.2917L13.2827 30.2527C12.6768 29.6915 12.2917 28.8958 12.2917 28.0049C12.2917 26.3076 13.6674 24.932 15.3647 24.932C17.0618 24.932 18.4376 26.3076 18.4376 28.0049C18.4376 28.8958 18.0524 29.6916 17.4466 30.2527L18.4376 35.175ZM24.5834 19.8135H6.14585V11.6157C6.14585 6.53219 10.2816 2.39695 15.3646 2.39695C20.4476 2.39695 24.5833 6.53219 24.5833 11.6157L24.5834 19.8135Z" fill="#1D3944"/>
</svg>
