<svg width="43" height="43" viewBox="0 0 43 43" fill="none" xmlns="http://www.w3.org/2000/svg">
<path d="M32.8101 41.5358C32.8101 39.497 31.1574 37.8444 29.1187 37.8444H14.3531C12.3144 37.8444 10.6617 39.497 10.6617 41.5358V42.8483H32.8101V41.5358Z" fill="#1D3944"/>
<path d="M40.275 10.774V8.31311H25.2007C24.8289 7.27066 24.0088 6.45059 22.9664 6.07882V0.848267H20.5054V6.07882C19.463 6.45059 18.6429 7.27066 18.2711 8.31311H3.19684V10.774H6.27334L0.735901 24.3092C0.735901 27.7014 3.49601 30.4615 6.88824 30.4615H9.34918C12.7414 30.4615 15.5015 27.7014 15.5015 24.3092L9.93907 10.774H18.2712C18.643 11.8165 19.4631 12.6366 20.5055 13.0083V30.5964C18.1008 31.0885 16.1985 32.9778 15.7082 35.3834H27.7638C27.2735 32.9778 25.3712 31.0885 22.9665 30.5964V13.0083C24.0089 12.6366 24.829 11.8165 25.2007 10.774H33.5078L27.9703 24.3092C27.9703 27.7014 30.7304 30.4615 34.1226 30.4615H36.5836C39.9758 30.4615 42.7359 27.7014 42.7359 24.3092L37.1734 10.774H40.275ZM12.425 23.0787H3.8124L8.11871 12.7423L12.425 23.0787ZM39.6594 23.0787H31.0468L35.3531 12.7423L39.6594 23.0787Z" fill="#1D3944"/>
</svg>
