<svg width="43" height="43" viewBox="0 0 43 43" fill="none" xmlns="http://www.w3.org/2000/svg">
<path d="M23.0431 42.8049C45.9977 41.4875 50.2652 9.15984 28.4845 1.90041C22.4575 -0.11667 15.547 0.800793 10.2742 4.35764H10.2757C7.83202 5.98241 5.75608 8.10138 4.18178 10.5779C2.60749 13.0543 1.5698 15.8333 1.13567 18.7356L1.13435 18.7346C-0.931449 31.6898 9.93898 43.6616 23.0431 42.8049ZM40.0321 29.4996C39.2828 31.2736 38.2757 32.9274 37.0434 34.4073C36.9564 33.8886 37.1964 33.2878 36.8388 32.8037C36.4507 32.0471 36.0913 31.2753 35.6869 30.5277C35.5366 30.2497 35.578 30.09 35.7996 29.8899C38.1727 27.8076 36.0571 28.9147 36.2902 25.9386C36.2986 25.8582 36.2827 25.7771 36.2445 25.7058C36.2063 25.6345 36.1476 25.5764 36.0759 25.5388C34.951 24.8206 33.4825 24.5739 32.32 25.3721C30.8711 26.0569 28.8045 25.5331 28.3358 23.8701C27.9213 22.7647 27.9722 21.6484 27.9613 20.5195C28.0281 19.9108 28.8632 19.8086 28.7278 19.1049C28.76 18.2114 28.4688 17.2682 29.3137 16.6851C29.3784 16.6279 29.4556 16.5867 29.539 16.5646C29.6225 16.5425 29.71 16.5401 29.7945 16.5577C30.5665 16.6511 31.3467 16.4692 31.9978 16.0439C32.6883 15.6062 33.5408 15.8895 34.3057 15.7899C34.6703 15.7639 34.9404 15.871 35.1648 16.1548C35.6061 16.712 36.2964 16.8756 36.8764 17.214C37.0715 17.3278 37.1762 17.1843 37.2677 17.0663C37.7549 16.4377 38.5016 16.2266 39.1563 15.8651C39.5129 15.6608 40.2278 16.4409 40.8364 16.4686C42.0493 20.7139 41.7678 25.4399 40.0321 29.4996ZM39.747 13.544C39.0202 13.6396 39.509 12.9491 39.1339 12.5879C38.7572 12.2517 38.3989 11.8955 38.0606 11.5208C37.8854 11.3337 37.7721 11.3036 37.5695 11.5035C37.0256 12.0417 37.0561 11.9846 37.6905 12.6278C38.4311 13.4419 38.9894 13.4283 37.6493 13.9941C37.3443 14.1314 37.0563 14.4443 36.7235 13.9922C36.522 13.7186 36.2478 13.5348 36.2804 13.1134C36.3304 12.4636 35.8346 11.9924 35.6052 11.4314C35.5367 11.264 35.4156 11.3819 35.3511 11.4643C34.8685 12.0848 34.1395 12.3247 33.4791 12.6694C32.3384 13.6667 32.5988 13.5581 31.0852 13.5147C30.945 13.5207 30.9038 13.3518 30.843 13.253C30.0808 12.0053 30.2286 11.7011 31.0182 10.5232C31.3087 10.349 32.592 10.5501 32.8346 10.8035C32.9437 10.9172 33.0332 11.0497 33.1905 11.2481C33.3114 10.7651 33.2502 10.395 33.2627 10.0304C33.4673 8.53449 34.7243 9.20864 35.6166 8.88372C36.0384 8.56136 36.2114 8.40088 36.122 8.24271C37.6137 9.79837 38.8385 11.5895 39.747 13.544ZM35.9999 8.11751C35.3909 7.72096 34.0378 7.30291 34.0018 6.32305C34.7083 6.8746 35.3759 7.47417 35.9999 8.11751ZM7.98842 7.92793C9.12377 6.79092 10.3941 5.79718 11.7709 4.9689C12.2392 5.20793 12.5733 6.08732 13.1606 5.77485C13.787 5.44614 14.4547 5.18543 14.9044 4.59766C15.1592 4.28816 15.605 4.52505 15.9377 4.43117C17.246 4.25404 17.5997 5.74361 18.089 6.62975C18.0458 6.6661 18.0231 6.70096 18.0043 6.69882C16.8691 6.57073 15.8283 6.93521 14.7995 7.33134C14.4616 7.46149 14.2011 7.47254 13.9897 7.14713C13.7284 6.74473 13.3927 6.73311 12.9759 6.90669C12.5898 7.1796 11.2027 7.22675 11.2986 7.77446C11.3927 8.28903 10.9864 9.16611 11.9101 8.99079C12.3429 8.8402 12.7149 10.1192 12.9794 9.38387C13.547 7.08424 15.9398 9.09102 17.7848 7.62164C18.4635 7.21892 19.0218 8.54545 19.2856 9.01272C19.486 9.45113 19.631 9.96727 20.3358 9.81437C19.8938 10.2565 19.4488 10.6957 19.0118 11.1426C18.8851 11.2722 18.7698 11.2307 18.6275 11.1812C18.078 10.9905 17.5211 10.8209 16.9736 10.6249C16.7124 10.5313 16.5871 10.5222 16.593 10.8721C17.0401 13.2789 14.9898 10.9577 13.5659 12.7626C11.7892 14.5482 13.1642 16.0467 10.7223 17.9239C10.5763 18.0579 10.455 18.0741 10.3107 17.9681C9.24992 17.2151 6.86654 16.8059 6.07411 18.0368C6.06275 18.0739 6.05997 18.1131 6.066 18.1514C6.07202 18.1897 6.08669 18.2262 6.1089 18.258C6.5333 18.9382 6.5666 20.0827 7.37238 18.9416C7.61223 18.7372 7.89396 18.806 8.13958 18.8468C8.39798 18.8898 8.26965 19.1634 8.26322 19.3226C8.29973 19.9572 9.21266 20.0703 9.03306 20.7848C8.93061 21.3017 9.58168 21.016 9.86777 21.1027C10.3303 21.1694 10.6811 21.0147 10.9776 20.6535C11.2025 20.3796 12.4931 20.1935 12.7904 20.3697C13.026 20.6072 13.125 20.9782 13.2941 21.2681C13.575 21.8319 13.5872 21.8433 14.0008 21.3977C14.9511 20.6517 16.287 21.2419 17.1912 21.7599C17.9017 22.1579 17.667 23.5786 18.7252 23.3744C18.9285 23.3264 19.0385 23.4996 19.1499 23.6251C19.9186 24.5655 21.1597 24.453 21.6144 25.7425C21.9073 26.2803 21.876 26.7517 21.6271 27.2838C21.4502 28.2833 20.9587 29.0198 19.9209 29.2997C19.098 29.5953 20.4863 30.938 18.6027 31.4734C18.1196 31.5786 18.057 31.9486 18.1196 32.3824C18.3194 33.5 18.048 34.3433 16.8189 34.6377C16.4554 34.7578 16.5202 35.2412 16.3477 35.5166C15.4997 37.0621 16.2706 38.1896 17.3505 39.2719C16.4026 39.3278 15.3754 39.4243 15.0477 38.4038C14.6384 37.215 14.268 36.0159 13.661 34.9045C13.4572 34.5312 13.5884 34.0976 13.5831 33.6928C13.4352 32.0367 11.744 30.7971 12.0617 29.0325C12.1848 28.1486 10.9242 29.4108 9.61901 27.8023C9.18398 27.2862 8.17173 26.039 8.34655 25.3925C8.70386 24.5019 8.74152 23.4275 9.56643 22.8093C9.9178 22.5361 9.94978 21.6844 9.29443 21.8495C7.611 22.1312 7.97069 20.8662 6.98474 21.1064C6.3171 21.1775 5.83517 20.9586 5.31631 20.4915C3.75964 19.0598 3.3134 20.1206 2.42149 19.0592C3.02003 14.8429 4.97401 10.9359 7.98842 7.92793Z" fill="#1D3944"/>
</svg>
