<svg width="59" height="43" viewBox="0 0 59 43" fill="none" xmlns="http://www.w3.org/2000/svg">
<path d="M0.166809 42.3483H47.7761V15.0975H0.166809V42.3483ZM4.54671 22.769C5.04886 22.769 5.5461 22.6701 6.01001 22.4779C6.47393 22.2857 6.89543 22.004 7.25045 21.6488C7.60547 21.2937 7.88705 20.8721 8.0791 20.4081C8.27115 19.9442 8.36991 19.4469 8.36974 18.9447H39.5719C39.5719 19.959 39.9748 20.9317 40.692 21.6489C41.4092 22.3661 42.382 22.769 43.3962 22.769V34.6666C42.382 34.6666 41.4092 35.0695 40.692 35.7867C39.9748 36.5039 39.5719 37.4766 39.5719 38.4909H8.36974C8.36991 37.9888 8.27115 37.4915 8.0791 37.0275C7.88705 36.5635 7.60547 36.1419 7.25045 35.7868C6.89543 35.4317 6.47393 35.1499 6.01001 34.9577C5.5461 34.7655 5.04886 34.6666 4.54671 34.6666V22.769Z" fill="#1D3944"/>
<path d="M23.9708 34.4594C27.139 34.4594 29.7073 31.8911 29.7073 28.7229C29.7073 25.5548 27.139 22.9865 23.9708 22.9865C20.8027 22.9865 18.2344 25.5548 18.2344 28.7229C18.2344 31.8911 20.8027 34.4594 23.9708 34.4594Z" fill="#1D3944"/>
<path d="M2.6676 13.1892H49.687V35.184L53.5266 34.7772L50.6787 7.68408L2.6676 13.1892Z" fill="#1D3944"/>
<path d="M53.5139 0.348267L5.24724 10.5371L52.3696 5.58635L54.7344 28.0643L58.6502 27.1235L53.5139 0.348267Z" fill="#1D3944"/>
</svg>
